<?xml version="1.0" encoding="UTF-8"?>
<svg xmlns:inkscape="http://www.inkscape.org/namespaces/inkscape" xmlns="http://www.w3.org/2000/svg" width="130mm" height="100mm" viewBox="0 0 130 100">
<g id="PRINT" inkscape:groupmode="layer" inkscape:label="PRINT: colors for the BN-20"><circle cx="16" cy="16" r="10" fill="#B5D4F4" stroke="#185FA5" stroke-width="1.6"/><ellipse cx="13" cy="12" rx="3" ry="2" fill="#ffffff" fill-opacity=".7"/><circle cx="40" cy="16" r="10" fill="#B5D4F4" stroke="#EF9F27" stroke-width="1.6"/><ellipse cx="37" cy="12" rx="3" ry="2" fill="#ffffff" fill-opacity=".7"/><circle cx="64" cy="16" r="10" fill="#B5D4F4" stroke="#7F77DD" stroke-width="1.6"/><ellipse cx="61" cy="12" rx="3" ry="2" fill="#ffffff" fill-opacity=".7"/><circle cx="94" cy="16" r="7" fill="#1D9E75"/><rect x="87" y="14.6" width="14" height="2.8000000000000003" fill="#ffffff" fill-opacity=".35"/><circle cx="112" cy="16" r="5" fill="#EF9F27"/><rect x="107" y="15.0" width="10" height="2.0" fill="#ffffff" fill-opacity=".35"/><circle cx="124" cy="16" r="3.5" fill="#7F77DD"/><rect x="120.5" y="15.3" width="7.0" height="1.4000000000000001" fill="#ffffff" fill-opacity=".35"/><polygon points="12.00,31.00 13.32,34.18 16.76,34.45 14.14,36.70 14.94,40.05 12.00,38.25 9.06,40.05 9.86,36.70 7.24,34.45 10.68,34.18" fill="#EF9F27"/><polygon points="28.00,31.00 29.32,34.18 32.76,34.45 30.14,36.70 30.94,40.05 28.00,38.25 25.06,40.05 25.86,36.70 23.24,34.45 26.68,34.18" fill="#EF9F27"/><polygon points="44.00,31.00 45.32,34.18 48.76,34.45 46.14,36.70 46.94,40.05 44.00,38.25 41.06,40.05 41.86,36.70 39.24,34.45 42.68,34.18" fill="#EF9F27"/><polygon points="60.00,31.00 61.32,34.18 64.76,34.45 62.14,36.70 62.94,40.05 60.00,38.25 57.06,40.05 57.86,36.70 55.24,34.45 58.68,34.18" fill="#EF9F27"/><polygon points="76.00,31.00 77.32,34.18 80.76,34.45 78.14,36.70 78.94,40.05 76.00,38.25 73.06,40.05 73.86,36.70 71.24,34.45 74.68,34.18" fill="#EF9F27"/><rect x="8" y="46" width="28" height="40" rx="3" fill="#378ADD"/><rect x="8" y="50" width="28" height="3" fill="#ffffff" fill-opacity=".7"/><rect x="8" y="59" width="28" height="3" fill="#ffffff" fill-opacity=".7"/><rect x="8" y="68" width="28" height="3" fill="#ffffff" fill-opacity=".7"/><rect x="8" y="77" width="28" height="3" fill="#ffffff" fill-opacity=".7"/><rect x="42" y="46" width="28" height="40" rx="3" fill="#E24B4A"/><circle cx="49" cy="54" r="3" fill="#ffffff" fill-opacity=".8"/><circle cx="63" cy="54" r="3" fill="#ffffff" fill-opacity=".8"/><circle cx="49" cy="66" r="3" fill="#ffffff" fill-opacity=".8"/><circle cx="63" cy="66" r="3" fill="#ffffff" fill-opacity=".8"/><circle cx="49" cy="78" r="3" fill="#ffffff" fill-opacity=".8"/><circle cx="63" cy="78" r="3" fill="#ffffff" fill-opacity=".8"/><rect x="76" y="46" width="28" height="40" rx="3" fill="#1D9E75"/><polyline points="79,54 90,49 101,54" fill="none" stroke="#ffffff" stroke-width="2"/><polyline points="79,64 90,59 101,64" fill="none" stroke="#ffffff" stroke-width="2"/><polyline points="79,74 90,69 101,74" fill="none" stroke="#ffffff" stroke-width="2"/><rect x="108" y="48" width="18" height="7" rx="1" fill="#E24B4A"/><rect x="108" y="59" width="18" height="7" rx="1" fill="#EF9F27"/><rect x="8" y="90" width="60" height="8" rx="1.5" fill="#ffffff" stroke="#B4B2A9" stroke-width=".3" stroke-dasharray="1.5 1"/><circle cx="117" cy="82" r="10" fill="#EF9F27"/><text x="117" y="80.5" font-size="3.4" text-anchor="middle" font-family="Arial" font-weight="bold" fill="#412402">BUG</text><text x="117" y="85" font-size="3.4" text-anchor="middle" font-family="Arial" font-weight="bold" fill="#412402">HUNTER</text></g>
<g id="CutContour" inkscape:groupmode="layer" inkscape:label="CUT CONTOUR: magenta, the BN-20 cut line"><circle cx="16" cy="16" r="10" fill="none" stroke="#FF00FF" stroke-width="0.2"/><circle cx="40" cy="16" r="10" fill="none" stroke="#FF00FF" stroke-width="0.2"/><circle cx="64" cy="16" r="10" fill="none" stroke="#FF00FF" stroke-width="0.2"/><circle cx="94" cy="16" r="7" fill="none" stroke="#FF00FF" stroke-width="0.2"/><circle cx="112" cy="16" r="5" fill="none" stroke="#FF00FF" stroke-width="0.2"/><circle cx="124" cy="16" r="3.5" fill="none" stroke="#FF00FF" stroke-width="0.2"/><polygon points="12.00,31.00 13.32,34.18 16.76,34.45 14.14,36.70 14.94,40.05 12.00,38.25 9.06,40.05 9.86,36.70 7.24,34.45 10.68,34.18" fill="none" stroke="#FF00FF" stroke-width="0.2"/><polygon points="28.00,31.00 29.32,34.18 32.76,34.45 30.14,36.70 30.94,40.05 28.00,38.25 25.06,40.05 25.86,36.70 23.24,34.45 26.68,34.18" fill="none" stroke="#FF00FF" stroke-width="0.2"/><polygon points="44.00,31.00 45.32,34.18 48.76,34.45 46.14,36.70 46.94,40.05 44.00,38.25 41.06,40.05 41.86,36.70 39.24,34.45 42.68,34.18" fill="none" stroke="#FF00FF" stroke-width="0.2"/><polygon points="60.00,31.00 61.32,34.18 64.76,34.45 62.14,36.70 62.94,40.05 60.00,38.25 57.06,40.05 57.86,36.70 55.24,34.45 58.68,34.18" fill="none" stroke="#FF00FF" stroke-width="0.2"/><polygon points="76.00,31.00 77.32,34.18 80.76,34.45 78.14,36.70 78.94,40.05 76.00,38.25 73.06,40.05 73.86,36.70 71.24,34.45 74.68,34.18" fill="none" stroke="#FF00FF" stroke-width="0.2"/><rect x="8" y="46" width="28" height="40" rx="3" fill="none" stroke="#FF00FF" stroke-width="0.2"/><rect x="42" y="46" width="28" height="40" rx="3" fill="none" stroke="#FF00FF" stroke-width="0.2"/><rect x="76" y="46" width="28" height="40" rx="3" fill="none" stroke="#FF00FF" stroke-width="0.2"/><rect x="108" y="48" width="18" height="7" rx="1" fill="none" stroke="#FF00FF" stroke-width="0.2"/><rect x="108" y="59" width="18" height="7" rx="1" fill="none" stroke="#FF00FF" stroke-width="0.2"/><rect x="8" y="90" width="60" height="8" rx="1.5" fill="none" stroke="#FF00FF" stroke-width="0.2"/><circle cx="117" cy="82" r="10" fill="none" stroke="#FF00FF" stroke-width="0.2"/></g>
</svg>
