0
SECTION
2
HEADER
9
$ACADVER
1
AC1009
9
$INSUNITS
70
4
0
ENDSEC
0
SECTION
2
TABLES
0
TABLE
2
LTYPE
70
1
0
LTYPE
2
CONTINUOUS
70
0
3
Solid line
72
65
73
0
40
0.0
0
ENDTAB
0
TABLE
2
LAYER
70
1
0
LAYER
2
PROFILE
70
0
62
7
6
CONTINUOUS
0
ENDTAB
0
ENDSEC
0
SECTION
2
ENTITIES
0
CIRCLE
8
PROFILE
10
55.0000
20
55.0000
30
0
40
55.0000
0
POLYLINE
8
PROFILE
66
1
70
1
0
VERTEX
8
PROFILE
10
53.4500
20
79.0000
30
0
0
VERTEX
8
PROFILE
10
53.4500
20
107.0000
30
0
0
VERTEX
8
PROFILE
10
56.5500
20
107.0000
30
0
0
VERTEX
8
PROFILE
10
56.5500
20
79.0000
30
0
0
SEQEND
8
PROFILE
0
POLYLINE
8
PROFILE
66
1
70
1
0
VERTEX
8
PROFILE
10
34.9904
20
41.6577
30
0
0
VERTEX
8
PROFILE
10
10.7416
20
27.6577
30
0
0
VERTEX
8
PROFILE
10
9.1916
20
30.3423
30
0
0
VERTEX
8
PROFILE
10
33.4404
20
44.3423
30
0
0
SEQEND
8
PROFILE
0
POLYLINE
8
PROFILE
66
1
70
1
0
VERTEX
8
PROFILE
10
76.5596
20
44.3423
30
0
0
VERTEX
8
PROFILE
10
100.8084
20
30.3423
30
0
0
VERTEX
8
PROFILE
10
99.2584
20
27.6577
30
0
0
VERTEX
8
PROFILE
10
75.0096
20
41.6577
30
0
0
SEQEND
8
PROFILE
0
POLYLINE
8
PROFILE
66
1
70
1
0
VERTEX
8
PROFILE
10
80.2057
20
71.3423
30
0
0
VERTEX
8
PROFILE
10
97.5263
20
81.3423
30
0
0
VERTEX
8
PROFILE
10
99.0763
20
78.6577
30
0
0
VERTEX
8
PROFILE
10
81.7557
20
68.6577
30
0
0
SEQEND
8
PROFILE
0
POLYLINE
8
PROFILE
66
1
70
1
0
VERTEX
8
PROFILE
10
28.2443
20
68.6577
30
0
0
VERTEX
8
PROFILE
10
10.9237
20
78.6577
30
0
0
VERTEX
8
PROFILE
10
12.4737
20
81.3423
30
0
0
VERTEX
8
PROFILE
10
29.7943
20
71.3423
30
0
0
SEQEND
8
PROFILE
0
POLYLINE
8
PROFILE
66
1
70
1
0
VERTEX
8
PROFILE
10
56.5500
20
25.0000
30
0
0
VERTEX
8
PROFILE
10
56.5500
20
5.0000
30
0
0
VERTEX
8
PROFILE
10
53.4500
20
5.0000
30
0
0
VERTEX
8
PROFILE
10
53.4500
20
25.0000
30
0
0
SEQEND
8
PROFILE
0
ENDSEC
0
EOF
