0
SECTION
2
HEADER
9
$ACADVER
1
AC1009
9
$INSUNITS
70
4
0
ENDSEC
0
SECTION
2
TABLES
0
TABLE
2
LTYPE
70
1
0
LTYPE
2
CONTINUOUS
70
0
3
Solid line
72
65
73
0
40
0.0
0
ENDTAB
0
TABLE
2
LAYER
70
2
0
LAYER
2
AXIS
70
0
62
5
6
CONTINUOUS
0
LAYER
2
PROFILE
70
0
62
7
6
CONTINUOUS
0
ENDTAB
0
ENDSEC
0
SECTION
2
ENTITIES
0
POLYLINE
8
PROFILE
66
1
70
1
0
VERTEX
8
PROFILE
10
55.2000
20
24.0000
30
0
0
VERTEX
8
PROFILE
10
58.0000
20
24.0000
30
0
0
VERTEX
8
PROFILE
10
62.0000
20
0.0000
30
0
0
VERTEX
8
PROFILE
10
60.8000
20
0.0000
30
0
0
VERTEX
8
PROFILE
10
59.3000
20
9.0000
30
0
0
VERTEX
8
PROFILE
10
50.0000
20
19.0000
30
0
0
VERTEX
8
PROFILE
10
50.0000
20
21.0000
30
0
0
VERTEX
8
PROFILE
10
55.2000
20
21.0000
30
0
0
SEQEND
8
PROFILE
0
LINE
8
AXIS
10
0.0000
20
-2.0000
30
0
11
0.0000
21
28.0000
31
0
0
ENDSEC
0
EOF
