0
SECTION
2
HEADER
9
$ACADVER
1
AC1009
9
$INSUNITS
70
4
0
ENDSEC
0
SECTION
2
TABLES
0
TABLE
2
LTYPE
70
1
0
LTYPE
2
CONTINUOUS
70
0
3
Solid line
72
65
73
0
40
0.0
0
ENDTAB
0
TABLE
2
LAYER
70
2
0
LAYER
2
AXIS
70
0
62
5
6
CONTINUOUS
0
LAYER
2
PROFILE
70
0
62
7
6
CONTINUOUS
0
ENDTAB
0
ENDSEC
0
SECTION
2
ENTITIES
0
POLYLINE
8
PROFILE
66
1
70
1
0
VERTEX
8
PROFILE
10
23.0000
20
0.0000
30
0
0
VERTEX
8
PROFILE
10
22.9986
20
0.5000
30
0
0
VERTEX
8
PROFILE
10
22.9943
20
1.0000
30
0
0
VERTEX
8
PROFILE
10
22.9872
20
1.5000
30
0
0
VERTEX
8
PROFILE
10
22.9773
20
2.0000
30
0
0
VERTEX
8
PROFILE
10
22.9645
20
2.5000
30
0
0
VERTEX
8
PROFILE
10
22.9488
20
3.0000
30
0
0
VERTEX
8
PROFILE
10
22.9303
20
3.5000
30
0
0
VERTEX
8
PROFILE
10
22.9090
20
4.0000
30
0
0
VERTEX
8
PROFILE
10
22.8847
20
4.5000
30
0
0
VERTEX
8
PROFILE
10
22.8576
20
5.0000
30
0
0
VERTEX
8
PROFILE
10
22.8276
20
5.5000
30
0
0
VERTEX
8
PROFILE
10
22.7946
20
6.0000
30
0
0
VERTEX
8
PROFILE
10
22.7588
20
6.5000
30
0
0
VERTEX
8
PROFILE
10
22.7200
20
7.0000
30
0
0
VERTEX
8
PROFILE
10
22.6783
20
7.5000
30
0
0
VERTEX
8
PROFILE
10
22.6336
20
8.0000
30
0
0
VERTEX
8
PROFILE
10
22.5860
20
8.5000
30
0
0
VERTEX
8
PROFILE
10
22.5353
20
9.0000
30
0
0
VERTEX
8
PROFILE
10
22.4816
20
9.5000
30
0
0
VERTEX
8
PROFILE
10
22.4249
20
10.0000
30
0
0
VERTEX
8
PROFILE
10
22.3651
20
10.5000
30
0
0
VERTEX
8
PROFILE
10
22.3023
20
11.0000
30
0
0
VERTEX
8
PROFILE
10
22.2363
20
11.5000
30
0
0
VERTEX
8
PROFILE
10
22.1671
20
12.0000
30
0
0
VERTEX
8
PROFILE
10
22.0948
20
12.5000
30
0
0
VERTEX
8
PROFILE
10
22.0193
20
13.0000
30
0
0
VERTEX
8
PROFILE
10
21.9406
20
13.5000
30
0
0
VERTEX
8
PROFILE
10
21.8586
20
14.0000
30
0
0
VERTEX
8
PROFILE
10
21.7733
20
14.5000
30
0
0
VERTEX
8
PROFILE
10
21.6846
20
15.0000
30
0
0
VERTEX
8
PROFILE
10
21.5926
20
15.5000
30
0
0
VERTEX
8
PROFILE
10
21.4971
20
16.0000
30
0
0
VERTEX
8
PROFILE
10
21.3981
20
16.5000
30
0
0
VERTEX
8
PROFILE
10
21.2956
20
17.0000
30
0
0
VERTEX
8
PROFILE
10
21.1895
20
17.5000
30
0
0
VERTEX
8
PROFILE
10
21.0798
20
18.0000
30
0
0
VERTEX
8
PROFILE
10
20.9665
20
18.5000
30
0
0
VERTEX
8
PROFILE
10
20.8493
20
19.0000
30
0
0
VERTEX
8
PROFILE
10
20.7284
20
19.5000
30
0
0
VERTEX
8
PROFILE
10
20.6035
20
20.0000
30
0
0
VERTEX
8
PROFILE
10
20.4748
20
20.5000
30
0
0
VERTEX
8
PROFILE
10
20.3420
20
21.0000
30
0
0
VERTEX
8
PROFILE
10
20.2051
20
21.5000
30
0
0
VERTEX
8
PROFILE
10
20.0640
20
22.0000
30
0
0
VERTEX
8
PROFILE
10
19.9186
20
22.5000
30
0
0
VERTEX
8
PROFILE
10
19.7688
20
23.0000
30
0
0
VERTEX
8
PROFILE
10
19.6146
20
23.5000
30
0
0
VERTEX
8
PROFILE
10
19.4558
20
24.0000
30
0
0
VERTEX
8
PROFILE
10
19.2923
20
24.5000
30
0
0
VERTEX
8
PROFILE
10
19.1240
20
25.0000
30
0
0
VERTEX
8
PROFILE
10
18.9508
20
25.5000
30
0
0
VERTEX
8
PROFILE
10
18.7725
20
26.0000
30
0
0
VERTEX
8
PROFILE
10
18.5889
20
26.5000
30
0
0
VERTEX
8
PROFILE
10
18.4000
20
27.0000
30
0
0
VERTEX
8
PROFILE
10
18.2055
20
27.5000
30
0
0
VERTEX
8
PROFILE
10
18.0053
20
28.0000
30
0
0
VERTEX
8
PROFILE
10
17.7992
20
28.5000
30
0
0
VERTEX
8
PROFILE
10
17.5870
20
29.0000
30
0
0
VERTEX
8
PROFILE
10
17.3684
20
29.5000
30
0
0
VERTEX
8
PROFILE
10
17.1432
20
30.0000
30
0
0
VERTEX
8
PROFILE
10
16.9111
20
30.5000
30
0
0
VERTEX
8
PROFILE
10
16.6719
20
31.0000
30
0
0
VERTEX
8
PROFILE
10
16.4253
20
31.5000
30
0
0
VERTEX
8
PROFILE
10
16.1708
20
32.0000
30
0
0
VERTEX
8
PROFILE
10
15.9082
20
32.5000
30
0
0
VERTEX
8
PROFILE
10
15.6370
20
33.0000
30
0
0
VERTEX
8
PROFILE
10
15.3567
20
33.5000
30
0
0
VERTEX
8
PROFILE
10
15.0669
20
34.0000
30
0
0
VERTEX
8
PROFILE
10
14.7670
20
34.5000
30
0
0
VERTEX
8
PROFILE
10
14.4564
20
35.0000
30
0
0
VERTEX
8
PROFILE
10
14.1343
20
35.5000
30
0
0
VERTEX
8
PROFILE
10
13.8000
20
36.0000
30
0
0
VERTEX
8
PROFILE
10
13.4525
20
36.5000
30
0
0
VERTEX
8
PROFILE
10
13.0908
20
37.0000
30
0
0
VERTEX
8
PROFILE
10
12.7137
20
37.5000
30
0
0
VERTEX
8
PROFILE
10
12.3198
20
38.0000
30
0
0
VERTEX
8
PROFILE
10
11.9074
20
38.5000
30
0
0
VERTEX
8
PROFILE
10
11.4744
20
39.0000
30
0
0
VERTEX
8
PROFILE
10
11.0186
20
39.5000
30
0
0
VERTEX
8
PROFILE
10
10.5368
20
40.0000
30
0
0
VERTEX
8
PROFILE
10
10.0255
20
40.5000
30
0
0
VERTEX
8
PROFILE
10
9.4797
20
41.0000
30
0
0
VERTEX
8
PROFILE
10
8.8932
20
41.5000
30
0
0
VERTEX
8
PROFILE
10
8.2573
20
42.0000
30
0
0
VERTEX
8
PROFILE
10
7.5594
20
42.5000
30
0
0
VERTEX
8
PROFILE
10
6.7807
20
43.0000
30
0
0
VERTEX
8
PROFILE
10
5.8889
20
43.5000
30
0
0
VERTEX
8
PROFILE
10
4.8218
20
44.0000
30
0
0
VERTEX
8
PROFILE
10
3.4191
20
44.5000
30
0
0
VERTEX
8
PROFILE
10
0.0000
20
45.0000
30
0
0
VERTEX
8
PROFILE
10
0.0000
20
43.8000
30
0
0
VERTEX
8
PROFILE
10
3.2407
20
43.3133
30
0
0
VERTEX
8
PROFILE
10
4.5702
20
42.8267
30
0
0
VERTEX
8
PROFILE
10
5.5816
20
42.3400
30
0
0
VERTEX
8
PROFILE
10
6.4269
20
41.8533
30
0
0
VERTEX
8
PROFILE
10
7.1650
20
41.3667
30
0
0
VERTEX
8
PROFILE
10
7.8264
20
40.8800
30
0
0
VERTEX
8
PROFILE
10
8.4292
20
40.3933
30
0
0
VERTEX
8
PROFILE
10
8.9851
20
39.9067
30
0
0
VERTEX
8
PROFILE
10
9.5024
20
39.4200
30
0
0
VERTEX
8
PROFILE
10
9.9871
20
38.9333
30
0
0
VERTEX
8
PROFILE
10
10.4437
20
38.4467
30
0
0
VERTEX
8
PROFILE
10
10.8758
20
37.9600
30
0
0
VERTEX
8
PROFILE
10
11.2861
20
37.4733
30
0
0
VERTEX
8
PROFILE
10
11.6770
20
36.9867
30
0
0
VERTEX
8
PROFILE
10
12.0504
20
36.5000
30
0
0
VERTEX
8
PROFILE
10
12.4078
20
36.0133
30
0
0
VERTEX
8
PROFILE
10
12.7506
20
35.5267
30
0
0
VERTEX
8
PROFILE
10
13.0800
20
35.0400
30
0
0
VERTEX
8
PROFILE
10
13.3969
20
34.5533
30
0
0
VERTEX
8
PROFILE
10
13.7022
20
34.0667
30
0
0
VERTEX
8
PROFILE
10
13.9966
20
33.5800
30
0
0
VERTEX
8
PROFILE
10
14.2808
20
33.0933
30
0
0
VERTEX
8
PROFILE
10
14.5555
20
32.6067
30
0
0
VERTEX
8
PROFILE
10
14.8212
20
32.1200
30
0
0
VERTEX
8
PROFILE
10
15.0782
20
31.6333
30
0
0
VERTEX
8
PROFILE
10
15.3271
20
31.1467
30
0
0
VERTEX
8
PROFILE
10
15.5683
20
30.6600
30
0
0
VERTEX
8
PROFILE
10
15.8021
20
30.1733
30
0
0
VERTEX
8
PROFILE
10
16.0288
20
29.6867
30
0
0
VERTEX
8
PROFILE
10
16.2488
20
29.2000
30
0
0
VERTEX
8
PROFILE
10
16.4622
20
28.7133
30
0
0
VERTEX
8
PROFILE
10
16.6694
20
28.2267
30
0
0
VERTEX
8
PROFILE
10
16.8706
20
27.7400
30
0
0
VERTEX
8
PROFILE
10
17.0659
20
27.2533
30
0
0
VERTEX
8
PROFILE
10
17.2557
20
26.7667
30
0
0
VERTEX
8
PROFILE
10
17.4400
20
26.2800
30
0
0
VERTEX
8
PROFILE
10
17.6191
20
25.7933
30
0
0
VERTEX
8
PROFILE
10
17.7930
20
25.3067
30
0
0
VERTEX
8
PROFILE
10
17.9620
20
24.8200
30
0
0
VERTEX
8
PROFILE
10
18.1263
20
24.3333
30
0
0
VERTEX
8
PROFILE
10
18.2858
20
23.8467
30
0
0
VERTEX
8
PROFILE
10
18.4407
20
23.3600
30
0
0
VERTEX
8
PROFILE
10
18.5912
20
22.8733
30
0
0
VERTEX
8
PROFILE
10
18.7374
20
22.3867
30
0
0
VERTEX
8
PROFILE
10
18.8794
20
21.9000
30
0
0
VERTEX
8
PROFILE
10
19.0171
20
21.4133
30
0
0
VERTEX
8
PROFILE
10
19.1509
20
20.9267
30
0
0
VERTEX
8
PROFILE
10
19.2806
20
20.4400
30
0
0
VERTEX
8
PROFILE
10
19.4065
20
19.9533
30
0
0
VERTEX
8
PROFILE
10
19.5286
20
19.4667
30
0
0
VERTEX
8
PROFILE
10
19.6469
20
18.9800
30
0
0
VERTEX
8
PROFILE
10
19.7615
20
18.4933
30
0
0
VERTEX
8
PROFILE
10
19.8726
20
18.0067
30
0
0
VERTEX
8
PROFILE
10
19.9800
20
17.5200
30
0
0
VERTEX
8
PROFILE
10
20.0840
20
17.0333
30
0
0
VERTEX
8
PROFILE
10
20.1845
20
16.5467
30
0
0
VERTEX
8
PROFILE
10
20.2817
20
16.0600
30
0
0
VERTEX
8
PROFILE
10
20.3755
20
15.5733
30
0
0
VERTEX
8
PROFILE
10
20.4660
20
15.0867
30
0
0
VERTEX
8
PROFILE
10
20.5532
20
14.6000
30
0
0
VERTEX
8
PROFILE
10
20.6373
20
14.1133
30
0
0
VERTEX
8
PROFILE
10
20.7181
20
13.6267
30
0
0
VERTEX
8
PROFILE
10
20.7959
20
13.1400
30
0
0
VERTEX
8
PROFILE
10
20.8705
20
12.6533
30
0
0
VERTEX
8
PROFILE
10
20.9421
20
12.1667
30
0
0
VERTEX
8
PROFILE
10
21.0106
20
11.6800
30
0
0
VERTEX
8
PROFILE
10
21.0761
20
11.1933
30
0
0
VERTEX
8
PROFILE
10
21.1387
20
10.7067
30
0
0
VERTEX
8
PROFILE
10
21.1983
20
10.2200
30
0
0
VERTEX
8
PROFILE
10
21.2549
20
9.7333
30
0
0
VERTEX
8
PROFILE
10
21.3087
20
9.2467
30
0
0
VERTEX
8
PROFILE
10
21.3596
20
8.7600
30
0
0
VERTEX
8
PROFILE
10
21.4076
20
8.2733
30
0
0
VERTEX
8
PROFILE
10
21.4527
20
7.7867
30
0
0
VERTEX
8
PROFILE
10
21.4951
20
7.3000
30
0
0
VERTEX
8
PROFILE
10
21.5346
20
6.8133
30
0
0
VERTEX
8
PROFILE
10
21.5714
20
6.3267
30
0
0
VERTEX
8
PROFILE
10
21.6054
20
5.8400
30
0
0
VERTEX
8
PROFILE
10
21.6366
20
5.3533
30
0
0
VERTEX
8
PROFILE
10
21.6650
20
4.8667
30
0
0
VERTEX
8
PROFILE
10
21.6907
20
4.3800
30
0
0
VERTEX
8
PROFILE
10
21.7137
20
3.8933
30
0
0
VERTEX
8
PROFILE
10
21.7340
20
3.4067
30
0
0
VERTEX
8
PROFILE
10
21.7515
20
2.9200
30
0
0
VERTEX
8
PROFILE
10
21.7663
20
2.4333
30
0
0
VERTEX
8
PROFILE
10
21.7785
20
1.9467
30
0
0
VERTEX
8
PROFILE
10
21.7879
20
1.4600
30
0
0
VERTEX
8
PROFILE
10
21.7946
20
0.9733
30
0
0
VERTEX
8
PROFILE
10
21.7987
20
0.4867
30
0
0
VERTEX
8
PROFILE
10
21.8000
20
0.0000
30
0
0
SEQEND
8
PROFILE
0
POLYLINE
8
PROFILE
66
1
70
1
0
VERTEX
8
PROFILE
10
8.0000
20
0.0000
30
0
0
VERTEX
8
PROFILE
10
21.8000
20
0.0000
30
0
0
VERTEX
8
PROFILE
10
20.9659
20
12.0000
30
0
0
VERTEX
8
PROFILE
10
8.0000
20
12.0000
30
0
0
SEQEND
8
PROFILE
0
LINE
8
AXIS
10
0.0000
20
-2.0000
30
0
11
0.0000
21
49.0000
31
0
0
ENDSEC
0
EOF
