0
SECTION
2
HEADER
9
$ACADVER
1
AC1009
9
$INSUNITS
70
4
0
ENDSEC
0
SECTION
2
TABLES
0
TABLE
2
LTYPE
70
1
0
LTYPE
2
CONTINUOUS
70
0
3
Solid line
72
65
73
0
40
0.0
0
ENDTAB
0
TABLE
2
LAYER
70
1
0
LAYER
2
PROFILE
70
0
62
7
6
CONTINUOUS
0
ENDTAB
0
ENDSEC
0
SECTION
2
ENTITIES
0
POLYLINE
8
PROFILE
66
1
70
1
0
VERTEX
8
PROFILE
10
5.0000
20
8.0000
30
0
0
VERTEX
8
PROFILE
10
21.1000
20
8.0000
30
0
0
VERTEX
8
PROFILE
10
21.1000
20
5.5000
30
0
0
VERTEX
8
PROFILE
10
48.9000
20
5.5000
30
0
0
VERTEX
8
PROFILE
10
48.9000
20
8.0000
30
0
0
VERTEX
8
PROFILE
10
51.0000
20
8.0000
30
0
0
VERTEX
8
PROFILE
10
51.0000
20
38.0000
30
0
0
VERTEX
8
PROFILE
10
18.0000
20
138.0000
30
0
0
VERTEX
8
PROFILE
10
16.0000
20
138.0000
30
0
0
VERTEX
8
PROFILE
10
16.0000
20
148.0000
30
0
0
VERTEX
8
PROFILE
10
8.0000
20
148.0000
30
0
0
VERTEX
8
PROFILE
10
8.0000
20
138.0000
30
0
0
VERTEX
8
PROFILE
10
5.0000
20
138.0000
30
0
0
SEQEND
8
PROFILE
0
POLYLINE
8
PROFILE
66
1
70
1
0
VERTEX
8
PROFILE
10
57.0000
20
8.0000
30
0
0
VERTEX
8
PROFILE
10
73.1000
20
8.0000
30
0
0
VERTEX
8
PROFILE
10
73.1000
20
5.5000
30
0
0
VERTEX
8
PROFILE
10
100.9000
20
5.5000
30
0
0
VERTEX
8
PROFILE
10
100.9000
20
8.0000
30
0
0
VERTEX
8
PROFILE
10
103.0000
20
8.0000
30
0
0
VERTEX
8
PROFILE
10
103.0000
20
38.0000
30
0
0
VERTEX
8
PROFILE
10
70.0000
20
138.0000
30
0
0
VERTEX
8
PROFILE
10
68.0000
20
138.0000
30
0
0
VERTEX
8
PROFILE
10
68.0000
20
148.0000
30
0
0
VERTEX
8
PROFILE
10
60.0000
20
148.0000
30
0
0
VERTEX
8
PROFILE
10
60.0000
20
138.0000
30
0
0
VERTEX
8
PROFILE
10
57.0000
20
138.0000
30
0
0
SEQEND
8
PROFILE
0
POLYLINE
8
PROFILE
66
1
70
1
0
VERTEX
8
PROFILE
10
109.0000
20
8.0000
30
0
0
VERTEX
8
PROFILE
10
125.1000
20
8.0000
30
0
0
VERTEX
8
PROFILE
10
125.1000
20
5.5000
30
0
0
VERTEX
8
PROFILE
10
152.9000
20
5.5000
30
0
0
VERTEX
8
PROFILE
10
152.9000
20
8.0000
30
0
0
VERTEX
8
PROFILE
10
155.0000
20
8.0000
30
0
0
VERTEX
8
PROFILE
10
155.0000
20
38.0000
30
0
0
VERTEX
8
PROFILE
10
122.0000
20
138.0000
30
0
0
VERTEX
8
PROFILE
10
120.0000
20
138.0000
30
0
0
VERTEX
8
PROFILE
10
120.0000
20
148.0000
30
0
0
VERTEX
8
PROFILE
10
112.0000
20
148.0000
30
0
0
VERTEX
8
PROFILE
10
112.0000
20
138.0000
30
0
0
VERTEX
8
PROFILE
10
109.0000
20
138.0000
30
0
0
SEQEND
8
PROFILE
0
ENDSEC
0
EOF
