0
SECTION
2
HEADER
9
$ACADVER
1
AC1009
9
$INSUNITS
70
4
0
ENDSEC
0
SECTION
2
TABLES
0
TABLE
2
LTYPE
70
1
0
LTYPE
2
CONTINUOUS
70
0
3
Solid line
72
65
73
0
40
0.0
0
ENDTAB
0
TABLE
2
LAYER
70
1
0
LAYER
2
PROFILE
70
0
62
7
6
CONTINUOUS
0
ENDTAB
0
ENDSEC
0
SECTION
2
ENTITIES
0
POLYLINE
8
PROFILE
66
1
70
1
0
VERTEX
8
PROFILE
10
5.0000
20
20.0000
30
0
0
VERTEX
8
PROFILE
10
8.1000
20
20.0000
30
0
0
VERTEX
8
PROFILE
10
8.1000
20
17.5000
30
0
0
VERTEX
8
PROFILE
10
23.9000
20
17.5000
30
0
0
VERTEX
8
PROFILE
10
23.9000
20
20.0000
30
0
0
VERTEX
8
PROFILE
10
35.0000
20
20.0000
30
0
0
VERTEX
8
PROFILE
10
35.0000
20
2.0000
30
0
0
VERTEX
8
PROFILE
10
50.0000
20
2.0000
30
0
0
VERTEX
8
PROFILE
10
50.0000
20
12.0000
30
0
0
VERTEX
8
PROFILE
10
17.0000
20
90.0000
30
0
0
VERTEX
8
PROFILE
10
5.0000
20
90.0000
30
0
0
SEQEND
8
PROFILE
0
POLYLINE
8
PROFILE
66
1
70
1
0
VERTEX
8
PROFILE
10
67.0000
20
20.0000
30
0
0
VERTEX
8
PROFILE
10
70.1000
20
20.0000
30
0
0
VERTEX
8
PROFILE
10
70.1000
20
17.5000
30
0
0
VERTEX
8
PROFILE
10
85.9000
20
17.5000
30
0
0
VERTEX
8
PROFILE
10
85.9000
20
20.0000
30
0
0
VERTEX
8
PROFILE
10
97.0000
20
20.0000
30
0
0
VERTEX
8
PROFILE
10
97.0000
20
2.0000
30
0
0
VERTEX
8
PROFILE
10
112.0000
20
2.0000
30
0
0
VERTEX
8
PROFILE
10
112.0000
20
12.0000
30
0
0
VERTEX
8
PROFILE
10
79.0000
20
90.0000
30
0
0
VERTEX
8
PROFILE
10
67.0000
20
90.0000
30
0
0
SEQEND
8
PROFILE
0
POLYLINE
8
PROFILE
66
1
70
1
0
VERTEX
8
PROFILE
10
129.0000
20
20.0000
30
0
0
VERTEX
8
PROFILE
10
132.1000
20
20.0000
30
0
0
VERTEX
8
PROFILE
10
132.1000
20
17.5000
30
0
0
VERTEX
8
PROFILE
10
147.9000
20
17.5000
30
0
0
VERTEX
8
PROFILE
10
147.9000
20
20.0000
30
0
0
VERTEX
8
PROFILE
10
159.0000
20
20.0000
30
0
0
VERTEX
8
PROFILE
10
159.0000
20
2.0000
30
0
0
VERTEX
8
PROFILE
10
174.0000
20
2.0000
30
0
0
VERTEX
8
PROFILE
10
174.0000
20
12.0000
30
0
0
VERTEX
8
PROFILE
10
141.0000
20
90.0000
30
0
0
VERTEX
8
PROFILE
10
129.0000
20
90.0000
30
0
0
SEQEND
8
PROFILE
0
ENDSEC
0
EOF
