0
SECTION
2
HEADER
9
$ACADVER
1
AC1009
9
$INSUNITS
70
4
0
ENDSEC
0
SECTION
2
TABLES
0
TABLE
2
LTYPE
70
1
0
LTYPE
2
CONTINUOUS
70
0
3
Solid line
72
65
73
0
40
0.0
0
ENDTAB
0
TABLE
2
LAYER
70
1
0
LAYER
2
PROFILE
70
0
62
7
6
CONTINUOUS
0
ENDTAB
0
ENDSEC
0
SECTION
2
ENTITIES
0
POLYLINE
8
PROFILE
66
1
70
1
0
VERTEX
8
PROFILE
10
6.0000
20
5.5000
30
0
0
VERTEX
8
PROFILE
10
14.0000
20
5.5000
30
0
0
VERTEX
8
PROFILE
10
14.0000
20
3.0000
30
0
0
VERTEX
8
PROFILE
10
44.0000
20
3.0000
30
0
0
VERTEX
8
PROFILE
10
44.0000
20
5.5000
30
0
0
VERTEX
8
PROFILE
10
52.0000
20
5.5000
30
0
0
VERTEX
8
PROFILE
10
52.0000
20
130.5000
30
0
0
VERTEX
8
PROFILE
10
35.0000
20
130.5000
30
0
0
VERTEX
8
PROFILE
10
35.0000
20
140.0000
30
0
0
VERTEX
8
PROFILE
10
23.0000
20
140.0000
30
0
0
VERTEX
8
PROFILE
10
23.0000
20
130.5000
30
0
0
VERTEX
8
PROFILE
10
6.0000
20
130.5000
30
0
0
SEQEND
8
PROFILE
0
POLYLINE
8
PROFILE
66
1
70
1
0
VERTEX
8
PROFILE
10
64.0000
20
5.5000
30
0
0
VERTEX
8
PROFILE
10
72.0000
20
5.5000
30
0
0
VERTEX
8
PROFILE
10
72.0000
20
3.0000
30
0
0
VERTEX
8
PROFILE
10
102.0000
20
3.0000
30
0
0
VERTEX
8
PROFILE
10
102.0000
20
5.5000
30
0
0
VERTEX
8
PROFILE
10
110.0000
20
5.5000
30
0
0
VERTEX
8
PROFILE
10
110.0000
20
130.5000
30
0
0
VERTEX
8
PROFILE
10
93.0000
20
130.5000
30
0
0
VERTEX
8
PROFILE
10
93.0000
20
140.0000
30
0
0
VERTEX
8
PROFILE
10
81.0000
20
140.0000
30
0
0
VERTEX
8
PROFILE
10
81.0000
20
130.5000
30
0
0
VERTEX
8
PROFILE
10
64.0000
20
130.5000
30
0
0
SEQEND
8
PROFILE
0
POLYLINE
8
PROFILE
66
1
70
1
0
VERTEX
8
PROFILE
10
122.0000
20
5.5000
30
0
0
VERTEX
8
PROFILE
10
130.0000
20
5.5000
30
0
0
VERTEX
8
PROFILE
10
130.0000
20
3.0000
30
0
0
VERTEX
8
PROFILE
10
160.0000
20
3.0000
30
0
0
VERTEX
8
PROFILE
10
160.0000
20
5.5000
30
0
0
VERTEX
8
PROFILE
10
168.0000
20
5.5000
30
0
0
VERTEX
8
PROFILE
10
168.0000
20
130.5000
30
0
0
VERTEX
8
PROFILE
10
151.0000
20
130.5000
30
0
0
VERTEX
8
PROFILE
10
151.0000
20
140.0000
30
0
0
VERTEX
8
PROFILE
10
139.0000
20
140.0000
30
0
0
VERTEX
8
PROFILE
10
139.0000
20
130.5000
30
0
0
VERTEX
8
PROFILE
10
122.0000
20
130.5000
30
0
0
SEQEND
8
PROFILE
0
ENDSEC
0
EOF
