0
SECTION
2
HEADER
9
$ACADVER
1
AC1009
9
$INSUNITS
70
4
0
ENDSEC
0
SECTION
2
TABLES
0
TABLE
2
LTYPE
70
1
0
LTYPE
2
CONTINUOUS
70
0
3
Solid line
72
65
73
0
40
0.0
0
ENDTAB
0
TABLE
2
LAYER
70
2
0
LAYER
2
AXIS
70
0
62
5
6
CONTINUOUS
0
LAYER
2
PROFILE
70
0
62
7
6
CONTINUOUS
0
ENDTAB
0
ENDSEC
0
SECTION
2
ENTITIES
0
POLYLINE
8
PROFILE
66
1
70
1
0
VERTEX
8
PROFILE
10
33.0000
20
0.0000
30
0
0
VERTEX
8
PROFILE
10
32.9980
20
0.5556
30
0
0
VERTEX
8
PROFILE
10
32.9919
20
1.1111
30
0
0
VERTEX
8
PROFILE
10
32.9817
20
1.6667
30
0
0
VERTEX
8
PROFILE
10
32.9674
20
2.2222
30
0
0
VERTEX
8
PROFILE
10
32.9490
20
2.7778
30
0
0
VERTEX
8
PROFILE
10
32.9266
20
3.3333
30
0
0
VERTEX
8
PROFILE
10
32.9000
20
3.8889
30
0
0
VERTEX
8
PROFILE
10
32.8694
20
4.4444
30
0
0
VERTEX
8
PROFILE
10
32.8346
20
5.0000
30
0
0
VERTEX
8
PROFILE
10
32.7957
20
5.5556
30
0
0
VERTEX
8
PROFILE
10
32.7526
20
6.1111
30
0
0
VERTEX
8
PROFILE
10
32.7054
20
6.6667
30
0
0
VERTEX
8
PROFILE
10
32.6539
20
7.2222
30
0
0
VERTEX
8
PROFILE
10
32.5983
20
7.7778
30
0
0
VERTEX
8
PROFILE
10
32.5384
20
8.3333
30
0
0
VERTEX
8
PROFILE
10
32.4743
20
8.8889
30
0
0
VERTEX
8
PROFILE
10
32.4059
20
9.4444
30
0
0
VERTEX
8
PROFILE
10
32.3333
20
10.0000
30
0
0
VERTEX
8
PROFILE
10
32.2562
20
10.5556
30
0
0
VERTEX
8
PROFILE
10
32.1749
20
11.1111
30
0
0
VERTEX
8
PROFILE
10
32.0891
20
11.6667
30
0
0
VERTEX
8
PROFILE
10
31.9989
20
12.2222
30
0
0
VERTEX
8
PROFILE
10
31.9042
20
12.7778
30
0
0
VERTEX
8
PROFILE
10
31.8050
20
13.3333
30
0
0
VERTEX
8
PROFILE
10
31.7013
20
13.8889
30
0
0
VERTEX
8
PROFILE
10
31.5930
20
14.4444
30
0
0
VERTEX
8
PROFILE
10
31.4800
20
15.0000
30
0
0
VERTEX
8
PROFILE
10
31.3623
20
15.5556
30
0
0
VERTEX
8
PROFILE
10
31.2399
20
16.1111
30
0
0
VERTEX
8
PROFILE
10
31.1127
20
16.6667
30
0
0
VERTEX
8
PROFILE
10
30.9806
20
17.2222
30
0
0
VERTEX
8
PROFILE
10
30.8436
20
17.7778
30
0
0
VERTEX
8
PROFILE
10
30.7016
20
18.3333
30
0
0
VERTEX
8
PROFILE
10
30.5546
20
18.8889
30
0
0
VERTEX
8
PROFILE
10
30.4024
20
19.4444
30
0
0
VERTEX
8
PROFILE
10
30.2450
20
20.0000
30
0
0
VERTEX
8
PROFILE
10
30.0823
20
20.5556
30
0
0
VERTEX
8
PROFILE
10
29.9142
20
21.1111
30
0
0
VERTEX
8
PROFILE
10
29.7407
20
21.6667
30
0
0
VERTEX
8
PROFILE
10
29.5616
20
22.2222
30
0
0
VERTEX
8
PROFILE
10
29.3768
20
22.7778
30
0
0
VERTEX
8
PROFILE
10
29.1863
20
23.3333
30
0
0
VERTEX
8
PROFILE
10
28.9899
20
23.8889
30
0
0
VERTEX
8
PROFILE
10
28.7874
20
24.4444
30
0
0
VERTEX
8
PROFILE
10
28.5788
20
25.0000
30
0
0
VERTEX
8
PROFILE
10
28.3640
20
25.5556
30
0
0
VERTEX
8
PROFILE
10
28.1427
20
26.1111
30
0
0
VERTEX
8
PROFILE
10
27.9149
20
26.6667
30
0
0
VERTEX
8
PROFILE
10
27.6803
20
27.2222
30
0
0
VERTEX
8
PROFILE
10
27.4388
20
27.7778
30
0
0
VERTEX
8
PROFILE
10
27.1903
20
28.3333
30
0
0
VERTEX
8
PROFILE
10
26.9344
20
28.8889
30
0
0
VERTEX
8
PROFILE
10
26.6711
20
29.4444
30
0
0
VERTEX
8
PROFILE
10
26.4000
20
30.0000
30
0
0
VERTEX
8
PROFILE
10
26.1210
20
30.5556
30
0
0
VERTEX
8
PROFILE
10
25.8337
20
31.1111
30
0
0
VERTEX
8
PROFILE
10
25.5380
20
31.6667
30
0
0
VERTEX
8
PROFILE
10
25.2335
20
32.2222
30
0
0
VERTEX
8
PROFILE
10
24.9198
20
32.7778
30
0
0
VERTEX
8
PROFILE
10
24.5967
20
33.3333
30
0
0
VERTEX
8
PROFILE
10
24.2638
20
33.8889
30
0
0
VERTEX
8
PROFILE
10
23.9206
20
34.4444
30
0
0
VERTEX
8
PROFILE
10
23.5667
20
35.0000
30
0
0
VERTEX
8
PROFILE
10
23.2016
20
35.5556
30
0
0
VERTEX
8
PROFILE
10
22.8248
20
36.1111
30
0
0
VERTEX
8
PROFILE
10
22.4357
20
36.6667
30
0
0
VERTEX
8
PROFILE
10
22.0336
20
37.2222
30
0
0
VERTEX
8
PROFILE
10
21.6178
20
37.7778
30
0
0
VERTEX
8
PROFILE
10
21.1875
20
38.3333
30
0
0
VERTEX
8
PROFILE
10
20.7418
20
38.8889
30
0
0
VERTEX
8
PROFILE
10
20.2797
20
39.4444
30
0
0
VERTEX
8
PROFILE
10
19.8000
20
40.0000
30
0
0
VERTEX
8
PROFILE
10
19.3014
20
40.5556
30
0
0
VERTEX
8
PROFILE
10
18.7825
20
41.1111
30
0
0
VERTEX
8
PROFILE
10
18.2414
20
41.6667
30
0
0
VERTEX
8
PROFILE
10
17.6762
20
42.2222
30
0
0
VERTEX
8
PROFILE
10
17.0845
20
42.7778
30
0
0
VERTEX
8
PROFILE
10
16.4633
20
43.3333
30
0
0
VERTEX
8
PROFILE
10
15.8092
20
43.8889
30
0
0
VERTEX
8
PROFILE
10
15.1181
20
44.4444
30
0
0
VERTEX
8
PROFILE
10
14.3844
20
45.0000
30
0
0
VERTEX
8
PROFILE
10
13.6013
20
45.5556
30
0
0
VERTEX
8
PROFILE
10
12.7598
20
46.1111
30
0
0
VERTEX
8
PROFILE
10
11.8474
20
46.6667
30
0
0
VERTEX
8
PROFILE
10
10.8461
20
47.2222
30
0
0
VERTEX
8
PROFILE
10
9.7288
20
47.7778
30
0
0
VERTEX
8
PROFILE
10
8.4493
20
48.3333
30
0
0
VERTEX
8
PROFILE
10
6.9183
20
48.8889
30
0
0
VERTEX
8
PROFILE
10
4.9057
20
49.4444
30
0
0
VERTEX
8
PROFILE
10
0.0000
20
50.0000
30
0
0
VERTEX
8
PROFILE
10
0.0000
20
48.8000
30
0
0
VERTEX
8
PROFILE
10
4.7273
20
48.2578
30
0
0
VERTEX
8
PROFILE
10
6.6667
20
47.7156
30
0
0
VERTEX
8
PROFILE
10
8.1420
20
47.1733
30
0
0
VERTEX
8
PROFILE
10
9.3750
20
46.6311
30
0
0
VERTEX
8
PROFILE
10
10.4517
20
46.0889
30
0
0
VERTEX
8
PROFILE
10
11.4165
20
45.5467
30
0
0
VERTEX
8
PROFILE
10
12.2958
20
45.0044
30
0
0
VERTEX
8
PROFILE
10
13.1067
20
44.4622
30
0
0
VERTEX
8
PROFILE
10
13.8613
20
43.9200
30
0
0
VERTEX
8
PROFILE
10
14.5683
20
43.3778
30
0
0
VERTEX
8
PROFILE
10
15.2344
20
42.8356
30
0
0
VERTEX
8
PROFILE
10
15.8646
20
42.2933
30
0
0
VERTEX
8
PROFILE
10
16.4632
20
41.7511
30
0
0
VERTEX
8
PROFILE
10
17.0335
20
41.2089
30
0
0
VERTEX
8
PROFILE
10
17.5781
20
40.6667
30
0
0
VERTEX
8
PROFILE
10
18.0995
20
40.1244
30
0
0
VERTEX
8
PROFILE
10
18.5996
20
39.5822
30
0
0
VERTEX
8
PROFILE
10
19.0800
20
39.0400
30
0
0
VERTEX
8
PROFILE
10
19.5422
20
38.4978
30
0
0
VERTEX
8
PROFILE
10
19.9876
20
37.9556
30
0
0
VERTEX
8
PROFILE
10
20.4170
20
37.4133
30
0
0
VERTEX
8
PROFILE
10
20.8317
20
36.8711
30
0
0
VERTEX
8
PROFILE
10
21.2324
20
36.3289
30
0
0
VERTEX
8
PROFILE
10
21.6198
20
35.7867
30
0
0
VERTEX
8
PROFILE
10
21.9948
20
35.2444
30
0
0
VERTEX
8
PROFILE
10
22.3579
20
34.7022
30
0
0
VERTEX
8
PROFILE
10
22.7097
20
34.1600
30
0
0
VERTEX
8
PROFILE
10
23.0508
20
33.6178
30
0
0
VERTEX
8
PROFILE
10
23.3815
20
33.0756
30
0
0
VERTEX
8
PROFILE
10
23.7023
20
32.5333
30
0
0
VERTEX
8
PROFILE
10
24.0137
20
31.9911
30
0
0
VERTEX
8
PROFILE
10
24.3159
20
31.4489
30
0
0
VERTEX
8
PROFILE
10
24.6094
20
30.9067
30
0
0
VERTEX
8
PROFILE
10
24.8943
20
30.3644
30
0
0
VERTEX
8
PROFILE
10
25.1711
20
29.8222
30
0
0
VERTEX
8
PROFILE
10
25.4400
20
29.2800
30
0
0
VERTEX
8
PROFILE
10
25.7012
20
28.7378
30
0
0
VERTEX
8
PROFILE
10
25.9550
20
28.1956
30
0
0
VERTEX
8
PROFILE
10
26.2015
20
27.6533
30
0
0
VERTEX
8
PROFILE
10
26.4410
20
27.1111
30
0
0
VERTEX
8
PROFILE
10
26.6737
20
26.5689
30
0
0
VERTEX
8
PROFILE
10
26.8998
20
26.0267
30
0
0
VERTEX
8
PROFILE
10
27.1193
20
25.4844
30
0
0
VERTEX
8
PROFILE
10
27.3326
20
24.9422
30
0
0
VERTEX
8
PROFILE
10
27.5396
20
24.4000
30
0
0
VERTEX
8
PROFILE
10
27.7406
20
23.8578
30
0
0
VERTEX
8
PROFILE
10
27.9357
20
23.3156
30
0
0
VERTEX
8
PROFILE
10
28.1250
20
22.7733
30
0
0
VERTEX
8
PROFILE
10
28.3086
20
22.2311
30
0
0
VERTEX
8
PROFILE
10
28.4866
20
21.6889
30
0
0
VERTEX
8
PROFILE
10
28.6592
20
21.1467
30
0
0
VERTEX
8
PROFILE
10
28.8265
20
20.6044
30
0
0
VERTEX
8
PROFILE
10
28.9884
20
20.0622
30
0
0
VERTEX
8
PROFILE
10
29.1452
20
19.5200
30
0
0
VERTEX
8
PROFILE
10
29.2969
20
18.9778
30
0
0
VERTEX
8
PROFILE
10
29.4435
20
18.4356
30
0
0
VERTEX
8
PROFILE
10
29.5852
20
17.8933
30
0
0
VERTEX
8
PROFILE
10
29.7220
20
17.3511
30
0
0
VERTEX
8
PROFILE
10
29.8541
20
16.8089
30
0
0
VERTEX
8
PROFILE
10
29.9813
20
16.2667
30
0
0
VERTEX
8
PROFILE
10
30.1039
20
15.7244
30
0
0
VERTEX
8
PROFILE
10
30.2219
20
15.1822
30
0
0
VERTEX
8
PROFILE
10
30.3353
20
14.6400
30
0
0
VERTEX
8
PROFILE
10
30.4441
20
14.0978
30
0
0
VERTEX
8
PROFILE
10
30.5485
20
13.5556
30
0
0
VERTEX
8
PROFILE
10
30.6485
20
13.0133
30
0
0
VERTEX
8
PROFILE
10
30.7441
20
12.4711
30
0
0
VERTEX
8
PROFILE
10
30.8353
20
11.9289
30
0
0
VERTEX
8
PROFILE
10
30.9222
20
11.3867
30
0
0
VERTEX
8
PROFILE
10
31.0049
20
10.8444
30
0
0
VERTEX
8
PROFILE
10
31.0833
20
10.3022
30
0
0
VERTEX
8
PROFILE
10
31.1575
20
9.7600
30
0
0
VERTEX
8
PROFILE
10
31.2276
20
9.2178
30
0
0
VERTEX
8
PROFILE
10
31.2934
20
8.6756
30
0
0
VERTEX
8
PROFILE
10
31.3552
20
8.1333
30
0
0
VERTEX
8
PROFILE
10
31.4129
20
7.5911
30
0
0
VERTEX
8
PROFILE
10
31.4665
20
7.0489
30
0
0
VERTEX
8
PROFILE
10
31.5161
20
6.5067
30
0
0
VERTEX
8
PROFILE
10
31.5616
20
5.9644
30
0
0
VERTEX
8
PROFILE
10
31.6031
20
5.4222
30
0
0
VERTEX
8
PROFILE
10
31.6406
20
4.8800
30
0
0
VERTEX
8
PROFILE
10
31.6741
20
4.3378
30
0
0
VERTEX
8
PROFILE
10
31.7037
20
3.7956
30
0
0
VERTEX
8
PROFILE
10
31.7293
20
3.2533
30
0
0
VERTEX
8
PROFILE
10
31.7509
20
2.7111
30
0
0
VERTEX
8
PROFILE
10
31.7686
20
2.1689
30
0
0
VERTEX
8
PROFILE
10
31.7823
20
1.6267
30
0
0
VERTEX
8
PROFILE
10
31.7921
20
1.0844
30
0
0
VERTEX
8
PROFILE
10
31.7980
20
0.5422
30
0
0
VERTEX
8
PROFILE
10
31.8000
20
0.0000
30
0
0
SEQEND
8
PROFILE
0
POLYLINE
8
PROFILE
66
1
70
1
0
VERTEX
8
PROFILE
10
8.0000
20
0.0000
30
0
0
VERTEX
8
PROFILE
10
31.8000
20
0.0000
30
0
0
VERTEX
8
PROFILE
10
30.8236
20
12.0000
30
0
0
VERTEX
8
PROFILE
10
8.0000
20
12.0000
30
0
0
SEQEND
8
PROFILE
0
LINE
8
AXIS
10
0.0000
20
-2.0000
30
0
11
0.0000
21
54.0000
31
0
0
ENDSEC
0
EOF
