0
SECTION
2
HEADER
9
$ACADVER
1
AC1009
9
$INSUNITS
70
4
0
ENDSEC
0
SECTION
2
TABLES
0
TABLE
2
LTYPE
70
1
0
LTYPE
2
CONTINUOUS
70
0
3
Solid line
72
65
73
0
40
0.0
0
ENDTAB
0
TABLE
2
LAYER
70
1
0
LAYER
2
PROFILE
70
0
62
7
6
CONTINUOUS
0
ENDTAB
0
ENDSEC
0
SECTION
2
ENTITIES
0
CIRCLE
8
PROFILE
10
55.0000
20
55.0000
30
0
40
55.0000
0
POLYLINE
8
PROFILE
66
1
70
1
0
VERTEX
8
PROFILE
10
71.0000
20
71.5500
30
0
0
VERTEX
8
PROFILE
10
39.0000
20
71.5500
30
0
0
VERTEX
8
PROFILE
10
39.0000
20
68.4500
30
0
0
VERTEX
8
PROFILE
10
71.0000
20
68.4500
30
0
0
SEQEND
8
PROFILE
0
POLYLINE
8
PROFILE
66
1
70
1
0
VERTEX
8
PROFILE
10
32.6670
20
60.5810
30
0
0
VERTEX
8
PROFILE
10
48.6670
20
32.8690
30
0
0
VERTEX
8
PROFILE
10
51.3520
20
34.4190
30
0
0
VERTEX
8
PROFILE
10
35.3520
20
62.1310
30
0
0
SEQEND
8
PROFILE
0
POLYLINE
8
PROFILE
66
1
70
1
0
VERTEX
8
PROFILE
10
61.3330
20
32.8690
30
0
0
VERTEX
8
PROFILE
10
77.3330
20
60.5810
30
0
0
VERTEX
8
PROFILE
10
74.6480
20
62.1310
30
0
0
VERTEX
8
PROFILE
10
58.6480
20
34.4190
30
0
0
SEQEND
8
PROFILE
0
POLYLINE
8
PROFILE
66
1
70
1
0
VERTEX
8
PROFILE
10
86.9520
20
71.6580
30
0
0
VERTEX
8
PROFILE
10
100.8080
20
79.6580
30
0
0
VERTEX
8
PROFILE
10
99.2580
20
82.3420
30
0
0
VERTEX
8
PROFILE
10
85.4020
20
74.3420
30
0
0
SEQEND
8
PROFILE
0
POLYLINE
8
PROFILE
66
1
70
1
0
VERTEX
8
PROFILE
10
24.5980
20
74.3420
30
0
0
VERTEX
8
PROFILE
10
10.7420
20
82.3420
30
0
0
VERTEX
8
PROFILE
10
9.1920
20
79.6580
30
0
0
VERTEX
8
PROFILE
10
23.0480
20
71.6580
30
0
0
SEQEND
8
PROFILE
0
POLYLINE
8
PROFILE
66
1
70
1
0
VERTEX
8
PROFILE
10
53.4500
20
19.0000
30
0
0
VERTEX
8
PROFILE
10
53.4500
20
3.0000
30
0
0
VERTEX
8
PROFILE
10
56.5500
20
3.0000
30
0
0
VERTEX
8
PROFILE
10
56.5500
20
19.0000
30
0
0
SEQEND
8
PROFILE
0
CIRCLE
8
PROFILE
10
79.0350
20
48.6290
30
0
40
2.0000
0
CIRCLE
8
PROFILE
10
72.5350
20
37.3710
30
0
40
2.0000
0
ENDSEC
0
EOF
