0
SECTION
2
HEADER
9
$ACADVER
1
AC1009
9
$INSUNITS
70
4
0
ENDSEC
0
SECTION
2
TABLES
0
TABLE
2
LTYPE
70
1
0
LTYPE
2
CONTINUOUS
70
0
3
Solid line
72
65
73
0
40
0.0
0
ENDTAB
0
TABLE
2
LAYER
70
2
0
LAYER
2
CUT
70
0
62
1
6
CONTINUOUS
0
LAYER
2
ENGRAVE
70
0
62
7
6
CONTINUOUS
0
ENDTAB
0
ENDSEC
0
SECTION
2
ENTITIES
0
POLYLINE
8
CUT
66
1
70
1
0
VERTEX
8
CUT
10
5.0000
20
65.0000
30
0
0
VERTEX
8
CUT
10
125.0000
20
65.0000
30
0
0
VERTEX
8
CUT
10
125.0000
20
35.0000
30
0
0
VERTEX
8
CUT
10
5.0000
20
35.0000
30
0
0
SEQEND
8
CUT
0
POLYLINE
8
CUT
66
1
70
1
0
VERTEX
8
CUT
10
12.0000
20
61.0000
30
0
0
VERTEX
8
CUT
10
15.0000
20
61.0000
30
0
0
VERTEX
8
CUT
10
15.0000
20
43.0000
30
0
0
VERTEX
8
CUT
10
12.0000
20
43.0000
30
0
0
SEQEND
8
CUT
0
POLYLINE
8
CUT
66
1
70
1
0
VERTEX
8
CUT
10
28.0000
20
61.0000
30
0
0
VERTEX
8
CUT
10
31.0500
20
61.0000
30
0
0
VERTEX
8
CUT
10
31.0500
20
43.0000
30
0
0
VERTEX
8
CUT
10
28.0000
20
43.0000
30
0
0
SEQEND
8
CUT
0
POLYLINE
8
CUT
66
1
70
1
0
VERTEX
8
CUT
10
44.0000
20
61.0000
30
0
0
VERTEX
8
CUT
10
47.1000
20
61.0000
30
0
0
VERTEX
8
CUT
10
47.1000
20
43.0000
30
0
0
VERTEX
8
CUT
10
44.0000
20
43.0000
30
0
0
SEQEND
8
CUT
0
POLYLINE
8
CUT
66
1
70
1
0
VERTEX
8
CUT
10
60.0000
20
61.0000
30
0
0
VERTEX
8
CUT
10
63.1500
20
61.0000
30
0
0
VERTEX
8
CUT
10
63.1500
20
43.0000
30
0
0
VERTEX
8
CUT
10
60.0000
20
43.0000
30
0
0
SEQEND
8
CUT
0
POLYLINE
8
CUT
66
1
70
1
0
VERTEX
8
CUT
10
76.0000
20
61.0000
30
0
0
VERTEX
8
CUT
10
79.2000
20
61.0000
30
0
0
VERTEX
8
CUT
10
79.2000
20
43.0000
30
0
0
VERTEX
8
CUT
10
76.0000
20
43.0000
30
0
0
SEQEND
8
CUT
0
POLYLINE
8
CUT
66
1
70
1
0
VERTEX
8
CUT
10
92.0000
20
61.0000
30
0
0
VERTEX
8
CUT
10
95.2500
20
61.0000
30
0
0
VERTEX
8
CUT
10
95.2500
20
43.0000
30
0
0
VERTEX
8
CUT
10
92.0000
20
43.0000
30
0
0
SEQEND
8
CUT
0
POLYLINE
8
CUT
66
1
70
1
0
VERTEX
8
CUT
10
108.0000
20
61.0000
30
0
0
VERTEX
8
CUT
10
111.3000
20
61.0000
30
0
0
VERTEX
8
CUT
10
111.3000
20
43.0000
30
0
0
VERTEX
8
CUT
10
108.0000
20
43.0000
30
0
0
SEQEND
8
CUT
0
POLYLINE
8
CUT
66
1
70
1
0
VERTEX
8
CUT
10
5.0000
20
28.0000
30
0
0
VERTEX
8
CUT
10
29.0000
20
28.0000
30
0
0
VERTEX
8
CUT
10
29.0000
20
10.0000
30
0
0
VERTEX
8
CUT
10
5.0000
20
10.0000
30
0
0
SEQEND
8
CUT
0
POLYLINE
8
CUT
66
1
70
1
0
VERTEX
8
CUT
10
35.0000
20
28.0000
30
0
0
VERTEX
8
CUT
10
59.0000
20
28.0000
30
0
0
VERTEX
8
CUT
10
59.0000
20
10.0000
30
0
0
VERTEX
8
CUT
10
35.0000
20
10.0000
30
0
0
SEQEND
8
CUT
0
POLYLINE
8
CUT
66
1
70
1
0
VERTEX
8
CUT
10
65.0000
20
28.0000
30
0
0
VERTEX
8
CUT
10
89.0000
20
28.0000
30
0
0
VERTEX
8
CUT
10
89.0000
20
10.0000
30
0
0
VERTEX
8
CUT
10
65.0000
20
10.0000
30
0
0
SEQEND
8
CUT
0
TEXT
8
ENGRAVE
10
13.5000
20
38.0000
30
0
40
3.000
1
3.00
72
1
11
13.5000
21
38.0000
31
0
0
TEXT
8
ENGRAVE
10
29.5200
20
38.0000
30
0
40
3.000
1
3.05
72
1
11
29.5200
21
38.0000
31
0
0
TEXT
8
ENGRAVE
10
45.5500
20
38.0000
30
0
40
3.000
1
3.10
72
1
11
45.5500
21
38.0000
31
0
0
TEXT
8
ENGRAVE
10
61.5800
20
38.0000
30
0
40
3.000
1
3.15
72
1
11
61.5800
21
38.0000
31
0
0
TEXT
8
ENGRAVE
10
77.6000
20
38.0000
30
0
40
3.000
1
3.20
72
1
11
77.6000
21
38.0000
31
0
0
TEXT
8
ENGRAVE
10
93.6200
20
38.0000
30
0
40
3.000
1
3.25
72
1
11
93.6200
21
38.0000
31
0
0
TEXT
8
ENGRAVE
10
109.6500
20
38.0000
30
0
40
3.000
1
3.30
72
1
11
109.6500
21
38.0000
31
0
0
ENDSEC
0
EOF
