0
SECTION
2
HEADER
9
$ACADVER
1
AC1009
9
$INSUNITS
70
4
0
ENDSEC
0
SECTION
2
TABLES
0
TABLE
2
LTYPE
70
1
0
LTYPE
2
CONTINUOUS
70
0
3
Solid line
72
65
73
0
40
0.0
0
ENDTAB
0
TABLE
2
LAYER
70
1
0
LAYER
2
CUT
70
0
62
1
6
CONTINUOUS
0
ENDTAB
0
ENDSEC
0
SECTION
2
ENTITIES
0
CIRCLE
8
CUT
10
16.0000
20
84.0000
30
0
40
10.0000
0
CIRCLE
8
CUT
10
40.0000
20
84.0000
30
0
40
10.0000
0
CIRCLE
8
CUT
10
64.0000
20
84.0000
30
0
40
10.0000
0
CIRCLE
8
CUT
10
94.0000
20
84.0000
30
0
40
7.0000
0
CIRCLE
8
CUT
10
112.0000
20
84.0000
30
0
40
5.0000
0
CIRCLE
8
CUT
10
124.0000
20
84.0000
30
0
40
3.5000
0
POLYLINE
8
CUT
66
1
70
1
0
VERTEX
8
CUT
10
12.0000
20
69.0000
30
0
0
VERTEX
8
CUT
10
13.3200
20
65.8200
30
0
0
VERTEX
8
CUT
10
16.7600
20
65.5500
30
0
0
VERTEX
8
CUT
10
14.1400
20
63.3000
30
0
0
VERTEX
8
CUT
10
14.9400
20
59.9500
30
0
0
VERTEX
8
CUT
10
12.0000
20
61.7500
30
0
0
VERTEX
8
CUT
10
9.0600
20
59.9500
30
0
0
VERTEX
8
CUT
10
9.8600
20
63.3000
30
0
0
VERTEX
8
CUT
10
7.2400
20
65.5500
30
0
0
VERTEX
8
CUT
10
10.6800
20
65.8200
30
0
0
SEQEND
8
CUT
0
POLYLINE
8
CUT
66
1
70
1
0
VERTEX
8
CUT
10
28.0000
20
69.0000
30
0
0
VERTEX
8
CUT
10
29.3200
20
65.8200
30
0
0
VERTEX
8
CUT
10
32.7600
20
65.5500
30
0
0
VERTEX
8
CUT
10
30.1400
20
63.3000
30
0
0
VERTEX
8
CUT
10
30.9400
20
59.9500
30
0
0
VERTEX
8
CUT
10
28.0000
20
61.7500
30
0
0
VERTEX
8
CUT
10
25.0600
20
59.9500
30
0
0
VERTEX
8
CUT
10
25.8600
20
63.3000
30
0
0
VERTEX
8
CUT
10
23.2400
20
65.5500
30
0
0
VERTEX
8
CUT
10
26.6800
20
65.8200
30
0
0
SEQEND
8
CUT
0
POLYLINE
8
CUT
66
1
70
1
0
VERTEX
8
CUT
10
44.0000
20
69.0000
30
0
0
VERTEX
8
CUT
10
45.3200
20
65.8200
30
0
0
VERTEX
8
CUT
10
48.7600
20
65.5500
30
0
0
VERTEX
8
CUT
10
46.1400
20
63.3000
30
0
0
VERTEX
8
CUT
10
46.9400
20
59.9500
30
0
0
VERTEX
8
CUT
10
44.0000
20
61.7500
30
0
0
VERTEX
8
CUT
10
41.0600
20
59.9500
30
0
0
VERTEX
8
CUT
10
41.8600
20
63.3000
30
0
0
VERTEX
8
CUT
10
39.2400
20
65.5500
30
0
0
VERTEX
8
CUT
10
42.6800
20
65.8200
30
0
0
SEQEND
8
CUT
0
POLYLINE
8
CUT
66
1
70
1
0
VERTEX
8
CUT
10
60.0000
20
69.0000
30
0
0
VERTEX
8
CUT
10
61.3200
20
65.8200
30
0
0
VERTEX
8
CUT
10
64.7600
20
65.5500
30
0
0
VERTEX
8
CUT
10
62.1400
20
63.3000
30
0
0
VERTEX
8
CUT
10
62.9400
20
59.9500
30
0
0
VERTEX
8
CUT
10
60.0000
20
61.7500
30
0
0
VERTEX
8
CUT
10
57.0600
20
59.9500
30
0
0
VERTEX
8
CUT
10
57.8600
20
63.3000
30
0
0
VERTEX
8
CUT
10
55.2400
20
65.5500
30
0
0
VERTEX
8
CUT
10
58.6800
20
65.8200
30
0
0
SEQEND
8
CUT
0
POLYLINE
8
CUT
66
1
70
1
0
VERTEX
8
CUT
10
76.0000
20
69.0000
30
0
0
VERTEX
8
CUT
10
77.3200
20
65.8200
30
0
0
VERTEX
8
CUT
10
80.7600
20
65.5500
30
0
0
VERTEX
8
CUT
10
78.1400
20
63.3000
30
0
0
VERTEX
8
CUT
10
78.9400
20
59.9500
30
0
0
VERTEX
8
CUT
10
76.0000
20
61.7500
30
0
0
VERTEX
8
CUT
10
73.0600
20
59.9500
30
0
0
VERTEX
8
CUT
10
73.8600
20
63.3000
30
0
0
VERTEX
8
CUT
10
71.2400
20
65.5500
30
0
0
VERTEX
8
CUT
10
74.6800
20
65.8200
30
0
0
SEQEND
8
CUT
0
POLYLINE
8
CUT
66
1
70
1
0
VERTEX
8
CUT
10
33.0000
20
54.0000
30
0
0
VERTEX
8
CUT
10
33.7765
20
53.8978
30
0
0
VERTEX
8
CUT
10
34.5000
20
53.5981
30
0
0
VERTEX
8
CUT
10
35.1213
20
53.1213
30
0
0
VERTEX
8
CUT
10
35.5981
20
52.5000
30
0
0
VERTEX
8
CUT
10
35.8978
20
51.7765
30
0
0
VERTEX
8
CUT
10
36.0000
20
51.0000
30
0
0
VERTEX
8
CUT
10
36.0000
20
17.0000
30
0
0
VERTEX
8
CUT
10
35.8978
20
16.2235
30
0
0
VERTEX
8
CUT
10
35.5981
20
15.5000
30
0
0
VERTEX
8
CUT
10
35.1213
20
14.8787
30
0
0
VERTEX
8
CUT
10
34.5000
20
14.4019
30
0
0
VERTEX
8
CUT
10
33.7765
20
14.1022
30
0
0
VERTEX
8
CUT
10
33.0000
20
14.0000
30
0
0
VERTEX
8
CUT
10
11.0000
20
14.0000
30
0
0
VERTEX
8
CUT
10
10.2235
20
14.1022
30
0
0
VERTEX
8
CUT
10
9.5000
20
14.4019
30
0
0
VERTEX
8
CUT
10
8.8787
20
14.8787
30
0
0
VERTEX
8
CUT
10
8.4019
20
15.5000
30
0
0
VERTEX
8
CUT
10
8.1022
20
16.2235
30
0
0
VERTEX
8
CUT
10
8.0000
20
17.0000
30
0
0
VERTEX
8
CUT
10
8.0000
20
51.0000
30
0
0
VERTEX
8
CUT
10
8.1022
20
51.7765
30
0
0
VERTEX
8
CUT
10
8.4019
20
52.5000
30
0
0
VERTEX
8
CUT
10
8.8787
20
53.1213
30
0
0
VERTEX
8
CUT
10
9.5000
20
53.5981
30
0
0
VERTEX
8
CUT
10
10.2235
20
53.8978
30
0
0
VERTEX
8
CUT
10
11.0000
20
54.0000
30
0
0
SEQEND
8
CUT
0
POLYLINE
8
CUT
66
1
70
1
0
VERTEX
8
CUT
10
67.0000
20
54.0000
30
0
0
VERTEX
8
CUT
10
67.7765
20
53.8978
30
0
0
VERTEX
8
CUT
10
68.5000
20
53.5981
30
0
0
VERTEX
8
CUT
10
69.1213
20
53.1213
30
0
0
VERTEX
8
CUT
10
69.5981
20
52.5000
30
0
0
VERTEX
8
CUT
10
69.8978
20
51.7765
30
0
0
VERTEX
8
CUT
10
70.0000
20
51.0000
30
0
0
VERTEX
8
CUT
10
70.0000
20
17.0000
30
0
0
VERTEX
8
CUT
10
69.8978
20
16.2235
30
0
0
VERTEX
8
CUT
10
69.5981
20
15.5000
30
0
0
VERTEX
8
CUT
10
69.1213
20
14.8787
30
0
0
VERTEX
8
CUT
10
68.5000
20
14.4019
30
0
0
VERTEX
8
CUT
10
67.7765
20
14.1022
30
0
0
VERTEX
8
CUT
10
67.0000
20
14.0000
30
0
0
VERTEX
8
CUT
10
45.0000
20
14.0000
30
0
0
VERTEX
8
CUT
10
44.2235
20
14.1022
30
0
0
VERTEX
8
CUT
10
43.5000
20
14.4019
30
0
0
VERTEX
8
CUT
10
42.8787
20
14.8787
30
0
0
VERTEX
8
CUT
10
42.4019
20
15.5000
30
0
0
VERTEX
8
CUT
10
42.1022
20
16.2235
30
0
0
VERTEX
8
CUT
10
42.0000
20
17.0000
30
0
0
VERTEX
8
CUT
10
42.0000
20
51.0000
30
0
0
VERTEX
8
CUT
10
42.1022
20
51.7765
30
0
0
VERTEX
8
CUT
10
42.4019
20
52.5000
30
0
0
VERTEX
8
CUT
10
42.8787
20
53.1213
30
0
0
VERTEX
8
CUT
10
43.5000
20
53.5981
30
0
0
VERTEX
8
CUT
10
44.2235
20
53.8978
30
0
0
VERTEX
8
CUT
10
45.0000
20
54.0000
30
0
0
SEQEND
8
CUT
0
POLYLINE
8
CUT
66
1
70
1
0
VERTEX
8
CUT
10
101.0000
20
54.0000
30
0
0
VERTEX
8
CUT
10
101.7765
20
53.8978
30
0
0
VERTEX
8
CUT
10
102.5000
20
53.5981
30
0
0
VERTEX
8
CUT
10
103.1213
20
53.1213
30
0
0
VERTEX
8
CUT
10
103.5981
20
52.5000
30
0
0
VERTEX
8
CUT
10
103.8978
20
51.7765
30
0
0
VERTEX
8
CUT
10
104.0000
20
51.0000
30
0
0
VERTEX
8
CUT
10
104.0000
20
17.0000
30
0
0
VERTEX
8
CUT
10
103.8978
20
16.2235
30
0
0
VERTEX
8
CUT
10
103.5981
20
15.5000
30
0
0
VERTEX
8
CUT
10
103.1213
20
14.8787
30
0
0
VERTEX
8
CUT
10
102.5000
20
14.4019
30
0
0
VERTEX
8
CUT
10
101.7765
20
14.1022
30
0
0
VERTEX
8
CUT
10
101.0000
20
14.0000
30
0
0
VERTEX
8
CUT
10
79.0000
20
14.0000
30
0
0
VERTEX
8
CUT
10
78.2235
20
14.1022
30
0
0
VERTEX
8
CUT
10
77.5000
20
14.4019
30
0
0
VERTEX
8
CUT
10
76.8787
20
14.8787
30
0
0
VERTEX
8
CUT
10
76.4019
20
15.5000
30
0
0
VERTEX
8
CUT
10
76.1022
20
16.2235
30
0
0
VERTEX
8
CUT
10
76.0000
20
17.0000
30
0
0
VERTEX
8
CUT
10
76.0000
20
51.0000
30
0
0
VERTEX
8
CUT
10
76.1022
20
51.7765
30
0
0
VERTEX
8
CUT
10
76.4019
20
52.5000
30
0
0
VERTEX
8
CUT
10
76.8787
20
53.1213
30
0
0
VERTEX
8
CUT
10
77.5000
20
53.5981
30
0
0
VERTEX
8
CUT
10
78.2235
20
53.8978
30
0
0
VERTEX
8
CUT
10
79.0000
20
54.0000
30
0
0
SEQEND
8
CUT
0
POLYLINE
8
CUT
66
1
70
1
0
VERTEX
8
CUT
10
125.0000
20
52.0000
30
0
0
VERTEX
8
CUT
10
125.2588
20
51.9659
30
0
0
VERTEX
8
CUT
10
125.5000
20
51.8660
30
0
0
VERTEX
8
CUT
10
125.7071
20
51.7071
30
0
0
VERTEX
8
CUT
10
125.8660
20
51.5000
30
0
0
VERTEX
8
CUT
10
125.9659
20
51.2588
30
0
0
VERTEX
8
CUT
10
126.0000
20
51.0000
30
0
0
VERTEX
8
CUT
10
126.0000
20
46.0000
30
0
0
VERTEX
8
CUT
10
125.9659
20
45.7412
30
0
0
VERTEX
8
CUT
10
125.8660
20
45.5000
30
0
0
VERTEX
8
CUT
10
125.7071
20
45.2929
30
0
0
VERTEX
8
CUT
10
125.5000
20
45.1340
30
0
0
VERTEX
8
CUT
10
125.2588
20
45.0341
30
0
0
VERTEX
8
CUT
10
125.0000
20
45.0000
30
0
0
VERTEX
8
CUT
10
109.0000
20
45.0000
30
0
0
VERTEX
8
CUT
10
108.7412
20
45.0341
30
0
0
VERTEX
8
CUT
10
108.5000
20
45.1340
30
0
0
VERTEX
8
CUT
10
108.2929
20
45.2929
30
0
0
VERTEX
8
CUT
10
108.1340
20
45.5000
30
0
0
VERTEX
8
CUT
10
108.0341
20
45.7412
30
0
0
VERTEX
8
CUT
10
108.0000
20
46.0000
30
0
0
VERTEX
8
CUT
10
108.0000
20
51.0000
30
0
0
VERTEX
8
CUT
10
108.0341
20
51.2588
30
0
0
VERTEX
8
CUT
10
108.1340
20
51.5000
30
0
0
VERTEX
8
CUT
10
108.2929
20
51.7071
30
0
0
VERTEX
8
CUT
10
108.5000
20
51.8660
30
0
0
VERTEX
8
CUT
10
108.7412
20
51.9659
30
0
0
VERTEX
8
CUT
10
109.0000
20
52.0000
30
0
0
SEQEND
8
CUT
0
POLYLINE
8
CUT
66
1
70
1
0
VERTEX
8
CUT
10
125.0000
20
41.0000
30
0
0
VERTEX
8
CUT
10
125.2588
20
40.9659
30
0
0
VERTEX
8
CUT
10
125.5000
20
40.8660
30
0
0
VERTEX
8
CUT
10
125.7071
20
40.7071
30
0
0
VERTEX
8
CUT
10
125.8660
20
40.5000
30
0
0
VERTEX
8
CUT
10
125.9659
20
40.2588
30
0
0
VERTEX
8
CUT
10
126.0000
20
40.0000
30
0
0
VERTEX
8
CUT
10
126.0000
20
35.0000
30
0
0
VERTEX
8
CUT
10
125.9659
20
34.7412
30
0
0
VERTEX
8
CUT
10
125.8660
20
34.5000
30
0
0
VERTEX
8
CUT
10
125.7071
20
34.2929
30
0
0
VERTEX
8
CUT
10
125.5000
20
34.1340
30
0
0
VERTEX
8
CUT
10
125.2588
20
34.0341
30
0
0
VERTEX
8
CUT
10
125.0000
20
34.0000
30
0
0
VERTEX
8
CUT
10
109.0000
20
34.0000
30
0
0
VERTEX
8
CUT
10
108.7412
20
34.0341
30
0
0
VERTEX
8
CUT
10
108.5000
20
34.1340
30
0
0
VERTEX
8
CUT
10
108.2929
20
34.2929
30
0
0
VERTEX
8
CUT
10
108.1340
20
34.5000
30
0
0
VERTEX
8
CUT
10
108.0341
20
34.7412
30
0
0
VERTEX
8
CUT
10
108.0000
20
35.0000
30
0
0
VERTEX
8
CUT
10
108.0000
20
40.0000
30
0
0
VERTEX
8
CUT
10
108.0341
20
40.2588
30
0
0
VERTEX
8
CUT
10
108.1340
20
40.5000
30
0
0
VERTEX
8
CUT
10
108.2929
20
40.7071
30
0
0
VERTEX
8
CUT
10
108.5000
20
40.8660
30
0
0
VERTEX
8
CUT
10
108.7412
20
40.9659
30
0
0
VERTEX
8
CUT
10
109.0000
20
41.0000
30
0
0
SEQEND
8
CUT
0
POLYLINE
8
CUT
66
1
70
1
0
VERTEX
8
CUT
10
66.5000
20
10.0000
30
0
0
VERTEX
8
CUT
10
66.8882
20
9.9489
30
0
0
VERTEX
8
CUT
10
67.2500
20
9.7990
30
0
0
VERTEX
8
CUT
10
67.5607
20
9.5607
30
0
0
VERTEX
8
CUT
10
67.7990
20
9.2500
30
0
0
VERTEX
8
CUT
10
67.9489
20
8.8882
30
0
0
VERTEX
8
CUT
10
68.0000
20
8.5000
30
0
0
VERTEX
8
CUT
10
68.0000
20
3.5000
30
0
0
VERTEX
8
CUT
10
67.9489
20
3.1118
30
0
0
VERTEX
8
CUT
10
67.7990
20
2.7500
30
0
0
VERTEX
8
CUT
10
67.5607
20
2.4393
30
0
0
VERTEX
8
CUT
10
67.2500
20
2.2010
30
0
0
VERTEX
8
CUT
10
66.8882
20
2.0511
30
0
0
VERTEX
8
CUT
10
66.5000
20
2.0000
30
0
0
VERTEX
8
CUT
10
9.5000
20
2.0000
30
0
0
VERTEX
8
CUT
10
9.1118
20
2.0511
30
0
0
VERTEX
8
CUT
10
8.7500
20
2.2010
30
0
0
VERTEX
8
CUT
10
8.4393
20
2.4393
30
0
0
VERTEX
8
CUT
10
8.2010
20
2.7500
30
0
0
VERTEX
8
CUT
10
8.0511
20
3.1118
30
0
0
VERTEX
8
CUT
10
8.0000
20
3.5000
30
0
0
VERTEX
8
CUT
10
8.0000
20
8.5000
30
0
0
VERTEX
8
CUT
10
8.0511
20
8.8882
30
0
0
VERTEX
8
CUT
10
8.2010
20
9.2500
30
0
0
VERTEX
8
CUT
10
8.4393
20
9.5607
30
0
0
VERTEX
8
CUT
10
8.7500
20
9.7990
30
0
0
VERTEX
8
CUT
10
9.1118
20
9.9489
30
0
0
VERTEX
8
CUT
10
9.5000
20
10.0000
30
0
0
SEQEND
8
CUT
0
CIRCLE
8
CUT
10
117.0000
20
18.0000
30
0
40
10.0000
0
ENDSEC
0
EOF
