0
SECTION
2
HEADER
9
$ACADVER
1
AC1009
9
$INSUNITS
70
4
0
ENDSEC
0
SECTION
2
TABLES
0
TABLE
2
LTYPE
70
1
0
LTYPE
2
CONTINUOUS
70
0
3
Solid line
72
65
73
0
40
0.0
0
ENDTAB
0
TABLE
2
LAYER
70
2
0
LAYER
2
CUT
70
0
62
1
6
CONTINUOUS
0
LAYER
2
ENGRAVE
70
0
62
7
6
CONTINUOUS
0
ENDTAB
0
ENDSEC
0
SECTION
2
ENTITIES
0
POLYLINE
8
CUT
66
1
70
1
0
VERTEX
8
CUT
10
5.0000
20
25.0000
30
0
0
VERTEX
8
CUT
10
9.1000
20
25.0000
30
0
0
VERTEX
8
CUT
10
9.1000
20
22.5000
30
0
0
VERTEX
8
CUT
10
28.9000
20
22.5000
30
0
0
VERTEX
8
CUT
10
28.9000
20
25.0000
30
0
0
VERTEX
8
CUT
10
42.0000
20
25.0000
30
0
0
VERTEX
8
CUT
10
42.0000
20
7.0000
30
0
0
VERTEX
8
CUT
10
57.0000
20
7.0000
30
0
0
VERTEX
8
CUT
10
57.0000
20
17.0000
30
0
0
VERTEX
8
CUT
10
19.0000
20
95.0000
30
0
0
VERTEX
8
CUT
10
5.0000
20
95.0000
30
0
0
SEQEND
8
CUT
0
POLYLINE
8
CUT
66
1
70
1
0
VERTEX
8
CUT
10
63.0000
20
25.0000
30
0
0
VERTEX
8
CUT
10
67.1000
20
25.0000
30
0
0
VERTEX
8
CUT
10
67.1000
20
22.5000
30
0
0
VERTEX
8
CUT
10
86.9000
20
22.5000
30
0
0
VERTEX
8
CUT
10
86.9000
20
25.0000
30
0
0
VERTEX
8
CUT
10
100.0000
20
25.0000
30
0
0
VERTEX
8
CUT
10
100.0000
20
7.0000
30
0
0
VERTEX
8
CUT
10
115.0000
20
7.0000
30
0
0
VERTEX
8
CUT
10
115.0000
20
17.0000
30
0
0
VERTEX
8
CUT
10
77.0000
20
95.0000
30
0
0
VERTEX
8
CUT
10
63.0000
20
95.0000
30
0
0
SEQEND
8
CUT
0
POLYLINE
8
CUT
66
1
70
1
0
VERTEX
8
CUT
10
121.0000
20
25.0000
30
0
0
VERTEX
8
CUT
10
125.1000
20
25.0000
30
0
0
VERTEX
8
CUT
10
125.1000
20
22.5000
30
0
0
VERTEX
8
CUT
10
144.9000
20
22.5000
30
0
0
VERTEX
8
CUT
10
144.9000
20
25.0000
30
0
0
VERTEX
8
CUT
10
158.0000
20
25.0000
30
0
0
VERTEX
8
CUT
10
158.0000
20
7.0000
30
0
0
VERTEX
8
CUT
10
173.0000
20
7.0000
30
0
0
VERTEX
8
CUT
10
173.0000
20
17.0000
30
0
0
VERTEX
8
CUT
10
135.0000
20
95.0000
30
0
0
VERTEX
8
CUT
10
121.0000
20
95.0000
30
0
0
SEQEND
8
CUT
0
TEXT
8
ENGRAVE
10
15.0000
20
30.0000
30
0
40
3.000
1
K
72
1
11
15.0000
21
30.0000
31
0
0
TEXT
8
ENGRAVE
10
73.0000
20
30.0000
30
0
40
3.000
1
K
72
1
11
73.0000
21
30.0000
31
0
0
TEXT
8
ENGRAVE
10
131.0000
20
30.0000
30
0
40
3.000
1
K
72
1
11
131.0000
21
30.0000
31
0
0
ENDSEC
0
EOF
