0
SECTION
2
HEADER
9
$ACADVER
1
AC1009
9
$INSUNITS
70
4
0
ENDSEC
0
SECTION
2
TABLES
0
TABLE
2
LTYPE
70
1
0
LTYPE
2
CONTINUOUS
70
0
3
Solid line
72
65
73
0
40
0.0
0
ENDTAB
0
TABLE
2
LAYER
70
2
0
LAYER
2
CUT
70
0
62
1
6
CONTINUOUS
0
LAYER
2
ENGRAVE
70
0
62
7
6
CONTINUOUS
0
ENDTAB
0
ENDSEC
0
SECTION
2
ENTITIES
0
POLYLINE
8
CUT
66
1
70
1
0
VERTEX
8
CUT
10
6.0000
20
5.5000
30
0
0
VERTEX
8
CUT
10
14.0000
20
5.5000
30
0
0
VERTEX
8
CUT
10
14.0000
20
3.0000
30
0
0
VERTEX
8
CUT
10
44.0000
20
3.0000
30
0
0
VERTEX
8
CUT
10
44.0000
20
5.5000
30
0
0
VERTEX
8
CUT
10
52.0000
20
5.5000
30
0
0
VERTEX
8
CUT
10
52.0000
20
130.5000
30
0
0
VERTEX
8
CUT
10
35.0000
20
130.5000
30
0
0
VERTEX
8
CUT
10
35.0000
20
140.0000
30
0
0
VERTEX
8
CUT
10
23.0000
20
140.0000
30
0
0
VERTEX
8
CUT
10
23.0000
20
130.5000
30
0
0
VERTEX
8
CUT
10
6.0000
20
130.5000
30
0
0
SEQEND
8
CUT
0
POLYLINE
8
CUT
66
1
70
1
0
VERTEX
8
CUT
10
64.0000
20
5.5000
30
0
0
VERTEX
8
CUT
10
72.0000
20
5.5000
30
0
0
VERTEX
8
CUT
10
72.0000
20
3.0000
30
0
0
VERTEX
8
CUT
10
102.0000
20
3.0000
30
0
0
VERTEX
8
CUT
10
102.0000
20
5.5000
30
0
0
VERTEX
8
CUT
10
110.0000
20
5.5000
30
0
0
VERTEX
8
CUT
10
110.0000
20
130.5000
30
0
0
VERTEX
8
CUT
10
93.0000
20
130.5000
30
0
0
VERTEX
8
CUT
10
93.0000
20
140.0000
30
0
0
VERTEX
8
CUT
10
81.0000
20
140.0000
30
0
0
VERTEX
8
CUT
10
81.0000
20
130.5000
30
0
0
VERTEX
8
CUT
10
64.0000
20
130.5000
30
0
0
SEQEND
8
CUT
0
POLYLINE
8
CUT
66
1
70
1
0
VERTEX
8
CUT
10
122.0000
20
5.5000
30
0
0
VERTEX
8
CUT
10
130.0000
20
5.5000
30
0
0
VERTEX
8
CUT
10
130.0000
20
3.0000
30
0
0
VERTEX
8
CUT
10
160.0000
20
3.0000
30
0
0
VERTEX
8
CUT
10
160.0000
20
5.5000
30
0
0
VERTEX
8
CUT
10
168.0000
20
5.5000
30
0
0
VERTEX
8
CUT
10
168.0000
20
130.5000
30
0
0
VERTEX
8
CUT
10
151.0000
20
130.5000
30
0
0
VERTEX
8
CUT
10
151.0000
20
140.0000
30
0
0
VERTEX
8
CUT
10
139.0000
20
140.0000
30
0
0
VERTEX
8
CUT
10
139.0000
20
130.5000
30
0
0
VERTEX
8
CUT
10
122.0000
20
130.5000
30
0
0
SEQEND
8
CUT
0
POLYLINE
8
ENGRAVE
66
1
70
1
0
VERTEX
8
ENGRAVE
10
20.0000
20
117.5000
30
0
0
VERTEX
8
ENGRAVE
10
25.0000
20
117.5000
30
0
0
VERTEX
8
ENGRAVE
10
25.0000
20
11.5000
30
0
0
VERTEX
8
ENGRAVE
10
20.0000
20
11.5000
30
0
0
SEQEND
8
ENGRAVE
0
POLYLINE
8
ENGRAVE
66
1
70
1
0
VERTEX
8
ENGRAVE
10
19.5000
20
53.5000
30
0
0
VERTEX
8
ENGRAVE
10
25.5000
20
53.5000
30
0
0
VERTEX
8
ENGRAVE
10
25.5000
20
47.5000
30
0
0
VERTEX
8
ENGRAVE
10
19.5000
20
47.5000
30
0
0
SEQEND
8
ENGRAVE
0
POLYLINE
8
ENGRAVE
66
1
70
1
0
VERTEX
8
ENGRAVE
10
19.5000
20
83.5000
30
0
0
VERTEX
8
ENGRAVE
10
25.5000
20
83.5000
30
0
0
VERTEX
8
ENGRAVE
10
25.5000
20
77.5000
30
0
0
VERTEX
8
ENGRAVE
10
19.5000
20
77.5000
30
0
0
SEQEND
8
ENGRAVE
0
POLYLINE
8
ENGRAVE
66
1
70
1
0
VERTEX
8
ENGRAVE
10
19.5000
20
113.5000
30
0
0
VERTEX
8
ENGRAVE
10
25.5000
20
113.5000
30
0
0
VERTEX
8
ENGRAVE
10
25.5000
20
107.5000
30
0
0
VERTEX
8
ENGRAVE
10
19.5000
20
107.5000
30
0
0
SEQEND
8
ENGRAVE
0
POLYLINE
8
ENGRAVE
66
1
70
1
0
VERTEX
8
ENGRAVE
10
19.5000
20
18.5000
30
0
0
VERTEX
8
ENGRAVE
10
25.5000
20
18.5000
30
0
0
VERTEX
8
ENGRAVE
10
25.5000
20
12.5000
30
0
0
VERTEX
8
ENGRAVE
10
19.5000
20
12.5000
30
0
0
SEQEND
8
ENGRAVE
0
POLYLINE
8
ENGRAVE
66
1
70
1
0
VERTEX
8
ENGRAVE
10
33.0000
20
117.5000
30
0
0
VERTEX
8
ENGRAVE
10
38.0000
20
117.5000
30
0
0
VERTEX
8
ENGRAVE
10
38.0000
20
11.5000
30
0
0
VERTEX
8
ENGRAVE
10
33.0000
20
11.5000
30
0
0
SEQEND
8
ENGRAVE
0
POLYLINE
8
ENGRAVE
66
1
70
1
0
VERTEX
8
ENGRAVE
10
32.5000
20
53.5000
30
0
0
VERTEX
8
ENGRAVE
10
38.5000
20
53.5000
30
0
0
VERTEX
8
ENGRAVE
10
38.5000
20
47.5000
30
0
0
VERTEX
8
ENGRAVE
10
32.5000
20
47.5000
30
0
0
SEQEND
8
ENGRAVE
0
POLYLINE
8
ENGRAVE
66
1
70
1
0
VERTEX
8
ENGRAVE
10
32.5000
20
83.5000
30
0
0
VERTEX
8
ENGRAVE
10
38.5000
20
83.5000
30
0
0
VERTEX
8
ENGRAVE
10
38.5000
20
77.5000
30
0
0
VERTEX
8
ENGRAVE
10
32.5000
20
77.5000
30
0
0
SEQEND
8
ENGRAVE
0
POLYLINE
8
ENGRAVE
66
1
70
1
0
VERTEX
8
ENGRAVE
10
32.5000
20
113.5000
30
0
0
VERTEX
8
ENGRAVE
10
38.5000
20
113.5000
30
0
0
VERTEX
8
ENGRAVE
10
38.5000
20
107.5000
30
0
0
VERTEX
8
ENGRAVE
10
32.5000
20
107.5000
30
0
0
SEQEND
8
ENGRAVE
0
POLYLINE
8
ENGRAVE
66
1
70
1
0
VERTEX
8
ENGRAVE
10
32.5000
20
18.5000
30
0
0
VERTEX
8
ENGRAVE
10
38.5000
20
18.5000
30
0
0
VERTEX
8
ENGRAVE
10
38.5000
20
12.5000
30
0
0
VERTEX
8
ENGRAVE
10
32.5000
20
12.5000
30
0
0
SEQEND
8
ENGRAVE
0
CIRCLE
8
ENGRAVE
10
29.0000
20
50.5000
30
0
40
3.0000
0
CIRCLE
8
ENGRAVE
10
29.0000
20
80.5000
30
0
40
3.0000
0
CIRCLE
8
ENGRAVE
10
29.0000
20
110.5000
30
0
40
3.0000
0
TEXT
8
ENGRAVE
10
35.5000
20
122.5000
30
0
40
6.000
1
+
72
1
11
35.5000
21
122.5000
31
0
0
TEXT
8
ENGRAVE
10
22.5000
20
122.5000
30
0
40
6.000
1
-
72
1
11
22.5000
21
122.5000
31
0
0
TEXT
8
ENGRAVE
10
29.0000
20
7.5000
30
0
40
3.000
1
wires
72
1
11
29.0000
21
7.5000
31
0
0
ENDSEC
0
EOF
