0
SECTION
2
HEADER
9
$ACADVER
1
AC1009
9
$INSUNITS
70
4
0
ENDSEC
0
SECTION
2
TABLES
0
TABLE
2
LTYPE
70
1
0
LTYPE
2
CONTINUOUS
70
0
3
Solid line
72
65
73
0
40
0.0
0
ENDTAB
0
TABLE
2
LAYER
70
1
0
LAYER
2
CUT
70
0
62
1
6
CONTINUOUS
0
ENDTAB
0
ENDSEC
0
SECTION
2
ENTITIES
0
POLYLINE
8
CUT
66
1
70
1
0
VERTEX
8
CUT
10
2.5000
20
140.0000
30
0
0
VERTEX
8
CUT
10
7.5000
20
140.0000
30
0
0
VERTEX
8
CUT
10
7.5000
20
34.0000
30
0
0
VERTEX
8
CUT
10
2.5000
20
34.0000
30
0
0
SEQEND
8
CUT
0
POLYLINE
8
CUT
66
1
70
1
0
VERTEX
8
CUT
10
10.5000
20
140.0000
30
0
0
VERTEX
8
CUT
10
15.5000
20
140.0000
30
0
0
VERTEX
8
CUT
10
15.5000
20
34.0000
30
0
0
VERTEX
8
CUT
10
10.5000
20
34.0000
30
0
0
SEQEND
8
CUT
0
POLYLINE
8
CUT
66
1
70
1
0
VERTEX
8
CUT
10
18.5000
20
140.0000
30
0
0
VERTEX
8
CUT
10
23.5000
20
140.0000
30
0
0
VERTEX
8
CUT
10
23.5000
20
34.0000
30
0
0
VERTEX
8
CUT
10
18.5000
20
34.0000
30
0
0
SEQEND
8
CUT
0
POLYLINE
8
CUT
66
1
70
1
0
VERTEX
8
CUT
10
26.5000
20
140.0000
30
0
0
VERTEX
8
CUT
10
31.5000
20
140.0000
30
0
0
VERTEX
8
CUT
10
31.5000
20
34.0000
30
0
0
VERTEX
8
CUT
10
26.5000
20
34.0000
30
0
0
SEQEND
8
CUT
0
POLYLINE
8
CUT
66
1
70
1
0
VERTEX
8
CUT
10
34.5000
20
140.0000
30
0
0
VERTEX
8
CUT
10
39.5000
20
140.0000
30
0
0
VERTEX
8
CUT
10
39.5000
20
34.0000
30
0
0
VERTEX
8
CUT
10
34.5000
20
34.0000
30
0
0
SEQEND
8
CUT
0
POLYLINE
8
CUT
66
1
70
1
0
VERTEX
8
CUT
10
42.5000
20
140.0000
30
0
0
VERTEX
8
CUT
10
47.5000
20
140.0000
30
0
0
VERTEX
8
CUT
10
47.5000
20
34.0000
30
0
0
VERTEX
8
CUT
10
42.5000
20
34.0000
30
0
0
SEQEND
8
CUT
0
POLYLINE
8
CUT
66
1
70
1
0
VERTEX
8
CUT
10
1.0000
20
30.0000
30
0
0
VERTEX
8
CUT
10
7.0000
20
30.0000
30
0
0
VERTEX
8
CUT
10
7.0000
20
24.0000
30
0
0
VERTEX
8
CUT
10
1.0000
20
24.0000
30
0
0
SEQEND
8
CUT
0
POLYLINE
8
CUT
66
1
70
1
0
VERTEX
8
CUT
10
8.0000
20
30.0000
30
0
0
VERTEX
8
CUT
10
14.0000
20
30.0000
30
0
0
VERTEX
8
CUT
10
14.0000
20
24.0000
30
0
0
VERTEX
8
CUT
10
8.0000
20
24.0000
30
0
0
SEQEND
8
CUT
0
POLYLINE
8
CUT
66
1
70
1
0
VERTEX
8
CUT
10
15.0000
20
30.0000
30
0
0
VERTEX
8
CUT
10
21.0000
20
30.0000
30
0
0
VERTEX
8
CUT
10
21.0000
20
24.0000
30
0
0
VERTEX
8
CUT
10
15.0000
20
24.0000
30
0
0
SEQEND
8
CUT
0
POLYLINE
8
CUT
66
1
70
1
0
VERTEX
8
CUT
10
22.0000
20
30.0000
30
0
0
VERTEX
8
CUT
10
28.0000
20
30.0000
30
0
0
VERTEX
8
CUT
10
28.0000
20
24.0000
30
0
0
VERTEX
8
CUT
10
22.0000
20
24.0000
30
0
0
SEQEND
8
CUT
0
POLYLINE
8
CUT
66
1
70
1
0
VERTEX
8
CUT
10
29.0000
20
30.0000
30
0
0
VERTEX
8
CUT
10
35.0000
20
30.0000
30
0
0
VERTEX
8
CUT
10
35.0000
20
24.0000
30
0
0
VERTEX
8
CUT
10
29.0000
20
24.0000
30
0
0
SEQEND
8
CUT
0
POLYLINE
8
CUT
66
1
70
1
0
VERTEX
8
CUT
10
36.0000
20
30.0000
30
0
0
VERTEX
8
CUT
10
42.0000
20
30.0000
30
0
0
VERTEX
8
CUT
10
42.0000
20
24.0000
30
0
0
VERTEX
8
CUT
10
36.0000
20
24.0000
30
0
0
SEQEND
8
CUT
0
POLYLINE
8
CUT
66
1
70
1
0
VERTEX
8
CUT
10
43.0000
20
30.0000
30
0
0
VERTEX
8
CUT
10
49.0000
20
30.0000
30
0
0
VERTEX
8
CUT
10
49.0000
20
24.0000
30
0
0
VERTEX
8
CUT
10
43.0000
20
24.0000
30
0
0
SEQEND
8
CUT
0
POLYLINE
8
CUT
66
1
70
1
0
VERTEX
8
CUT
10
1.0000
20
23.0000
30
0
0
VERTEX
8
CUT
10
7.0000
20
23.0000
30
0
0
VERTEX
8
CUT
10
7.0000
20
17.0000
30
0
0
VERTEX
8
CUT
10
1.0000
20
17.0000
30
0
0
SEQEND
8
CUT
0
POLYLINE
8
CUT
66
1
70
1
0
VERTEX
8
CUT
10
8.0000
20
23.0000
30
0
0
VERTEX
8
CUT
10
14.0000
20
23.0000
30
0
0
VERTEX
8
CUT
10
14.0000
20
17.0000
30
0
0
VERTEX
8
CUT
10
8.0000
20
17.0000
30
0
0
SEQEND
8
CUT
0
POLYLINE
8
CUT
66
1
70
1
0
VERTEX
8
CUT
10
15.0000
20
23.0000
30
0
0
VERTEX
8
CUT
10
21.0000
20
23.0000
30
0
0
VERTEX
8
CUT
10
21.0000
20
17.0000
30
0
0
VERTEX
8
CUT
10
15.0000
20
17.0000
30
0
0
SEQEND
8
CUT
0
POLYLINE
8
CUT
66
1
70
1
0
VERTEX
8
CUT
10
22.0000
20
23.0000
30
0
0
VERTEX
8
CUT
10
28.0000
20
23.0000
30
0
0
VERTEX
8
CUT
10
28.0000
20
17.0000
30
0
0
VERTEX
8
CUT
10
22.0000
20
17.0000
30
0
0
SEQEND
8
CUT
0
POLYLINE
8
CUT
66
1
70
1
0
VERTEX
8
CUT
10
29.0000
20
23.0000
30
0
0
VERTEX
8
CUT
10
35.0000
20
23.0000
30
0
0
VERTEX
8
CUT
10
35.0000
20
17.0000
30
0
0
VERTEX
8
CUT
10
29.0000
20
17.0000
30
0
0
SEQEND
8
CUT
0
POLYLINE
8
CUT
66
1
70
1
0
VERTEX
8
CUT
10
36.0000
20
23.0000
30
0
0
VERTEX
8
CUT
10
42.0000
20
23.0000
30
0
0
VERTEX
8
CUT
10
42.0000
20
17.0000
30
0
0
VERTEX
8
CUT
10
36.0000
20
17.0000
30
0
0
SEQEND
8
CUT
0
POLYLINE
8
CUT
66
1
70
1
0
VERTEX
8
CUT
10
43.0000
20
23.0000
30
0
0
VERTEX
8
CUT
10
49.0000
20
23.0000
30
0
0
VERTEX
8
CUT
10
49.0000
20
17.0000
30
0
0
VERTEX
8
CUT
10
43.0000
20
17.0000
30
0
0
SEQEND
8
CUT
0
POLYLINE
8
CUT
66
1
70
1
0
VERTEX
8
CUT
10
1.0000
20
16.0000
30
0
0
VERTEX
8
CUT
10
7.0000
20
16.0000
30
0
0
VERTEX
8
CUT
10
7.0000
20
10.0000
30
0
0
VERTEX
8
CUT
10
1.0000
20
10.0000
30
0
0
SEQEND
8
CUT
0
POLYLINE
8
CUT
66
1
70
1
0
VERTEX
8
CUT
10
8.0000
20
16.0000
30
0
0
VERTEX
8
CUT
10
14.0000
20
16.0000
30
0
0
VERTEX
8
CUT
10
14.0000
20
10.0000
30
0
0
VERTEX
8
CUT
10
8.0000
20
10.0000
30
0
0
SEQEND
8
CUT
0
POLYLINE
8
CUT
66
1
70
1
0
VERTEX
8
CUT
10
15.0000
20
16.0000
30
0
0
VERTEX
8
CUT
10
21.0000
20
16.0000
30
0
0
VERTEX
8
CUT
10
21.0000
20
10.0000
30
0
0
VERTEX
8
CUT
10
15.0000
20
10.0000
30
0
0
SEQEND
8
CUT
0
POLYLINE
8
CUT
66
1
70
1
0
VERTEX
8
CUT
10
22.0000
20
16.0000
30
0
0
VERTEX
8
CUT
10
28.0000
20
16.0000
30
0
0
VERTEX
8
CUT
10
28.0000
20
10.0000
30
0
0
VERTEX
8
CUT
10
22.0000
20
10.0000
30
0
0
SEQEND
8
CUT
0
POLYLINE
8
CUT
66
1
70
1
0
VERTEX
8
CUT
10
29.0000
20
16.0000
30
0
0
VERTEX
8
CUT
10
35.0000
20
16.0000
30
0
0
VERTEX
8
CUT
10
35.0000
20
10.0000
30
0
0
VERTEX
8
CUT
10
29.0000
20
10.0000
30
0
0
SEQEND
8
CUT
0
POLYLINE
8
CUT
66
1
70
1
0
VERTEX
8
CUT
10
36.0000
20
16.0000
30
0
0
VERTEX
8
CUT
10
42.0000
20
16.0000
30
0
0
VERTEX
8
CUT
10
42.0000
20
10.0000
30
0
0
VERTEX
8
CUT
10
36.0000
20
10.0000
30
0
0
SEQEND
8
CUT
0
POLYLINE
8
CUT
66
1
70
1
0
VERTEX
8
CUT
10
43.0000
20
16.0000
30
0
0
VERTEX
8
CUT
10
49.0000
20
16.0000
30
0
0
VERTEX
8
CUT
10
49.0000
20
10.0000
30
0
0
VERTEX
8
CUT
10
43.0000
20
10.0000
30
0
0
SEQEND
8
CUT
0
POLYLINE
8
CUT
66
1
70
1
0
VERTEX
8
CUT
10
1.0000
20
9.0000
30
0
0
VERTEX
8
CUT
10
7.0000
20
9.0000
30
0
0
VERTEX
8
CUT
10
7.0000
20
3.0000
30
0
0
VERTEX
8
CUT
10
1.0000
20
3.0000
30
0
0
SEQEND
8
CUT
0
POLYLINE
8
CUT
66
1
70
1
0
VERTEX
8
CUT
10
8.0000
20
9.0000
30
0
0
VERTEX
8
CUT
10
14.0000
20
9.0000
30
0
0
VERTEX
8
CUT
10
14.0000
20
3.0000
30
0
0
VERTEX
8
CUT
10
8.0000
20
3.0000
30
0
0
SEQEND
8
CUT
0
POLYLINE
8
CUT
66
1
70
1
0
VERTEX
8
CUT
10
15.0000
20
9.0000
30
0
0
VERTEX
8
CUT
10
21.0000
20
9.0000
30
0
0
VERTEX
8
CUT
10
21.0000
20
3.0000
30
0
0
VERTEX
8
CUT
10
15.0000
20
3.0000
30
0
0
SEQEND
8
CUT
0
POLYLINE
8
CUT
66
1
70
1
0
VERTEX
8
CUT
10
22.0000
20
9.0000
30
0
0
VERTEX
8
CUT
10
28.0000
20
9.0000
30
0
0
VERTEX
8
CUT
10
28.0000
20
3.0000
30
0
0
VERTEX
8
CUT
10
22.0000
20
3.0000
30
0
0
SEQEND
8
CUT
0
POLYLINE
8
CUT
66
1
70
1
0
VERTEX
8
CUT
10
29.0000
20
9.0000
30
0
0
VERTEX
8
CUT
10
35.0000
20
9.0000
30
0
0
VERTEX
8
CUT
10
35.0000
20
3.0000
30
0
0
VERTEX
8
CUT
10
29.0000
20
3.0000
30
0
0
SEQEND
8
CUT
0
POLYLINE
8
CUT
66
1
70
1
0
VERTEX
8
CUT
10
36.0000
20
9.0000
30
0
0
VERTEX
8
CUT
10
42.0000
20
9.0000
30
0
0
VERTEX
8
CUT
10
42.0000
20
3.0000
30
0
0
VERTEX
8
CUT
10
36.0000
20
3.0000
30
0
0
SEQEND
8
CUT
0
POLYLINE
8
CUT
66
1
70
1
0
VERTEX
8
CUT
10
43.0000
20
9.0000
30
0
0
VERTEX
8
CUT
10
49.0000
20
9.0000
30
0
0
VERTEX
8
CUT
10
49.0000
20
3.0000
30
0
0
VERTEX
8
CUT
10
43.0000
20
3.0000
30
0
0
SEQEND
8
CUT
0
ENDSEC
0
EOF
