<?xml version="1.0" encoding="UTF-8"?>
<svg xmlns="http://www.w3.org/2000/svg" width="50mm" height="88mm" viewBox="0 0 50 88">
<g id="CUT-red-hairline">
<rect x="2.5" y="2" width="5" height="54" fill="none" stroke="#FF0000" stroke-width="0.1"/>
<rect x="10.5" y="2" width="5" height="54" fill="none" stroke="#FF0000" stroke-width="0.1"/>
<rect x="18.5" y="2" width="5" height="54" fill="none" stroke="#FF0000" stroke-width="0.1"/>
<rect x="26.5" y="2" width="5" height="54" fill="none" stroke="#FF0000" stroke-width="0.1"/>
<rect x="34.5" y="2" width="5" height="54" fill="none" stroke="#FF0000" stroke-width="0.1"/>
<rect x="42.5" y="2" width="5" height="54" fill="none" stroke="#FF0000" stroke-width="0.1"/>
<rect x="1" y="60" width="6" height="6" fill="none" stroke="#FF0000" stroke-width="0.1"/>
<rect x="8" y="60" width="6" height="6" fill="none" stroke="#FF0000" stroke-width="0.1"/>
<rect x="15" y="60" width="6" height="6" fill="none" stroke="#FF0000" stroke-width="0.1"/>
<rect x="22" y="60" width="6" height="6" fill="none" stroke="#FF0000" stroke-width="0.1"/>
<rect x="29" y="60" width="6" height="6" fill="none" stroke="#FF0000" stroke-width="0.1"/>
<rect x="36" y="60" width="6" height="6" fill="none" stroke="#FF0000" stroke-width="0.1"/>
<rect x="43" y="60" width="6" height="6" fill="none" stroke="#FF0000" stroke-width="0.1"/>
<rect x="1" y="67" width="6" height="6" fill="none" stroke="#FF0000" stroke-width="0.1"/>
<rect x="8" y="67" width="6" height="6" fill="none" stroke="#FF0000" stroke-width="0.1"/>
<rect x="15" y="67" width="6" height="6" fill="none" stroke="#FF0000" stroke-width="0.1"/>
<rect x="22" y="67" width="6" height="6" fill="none" stroke="#FF0000" stroke-width="0.1"/>
<rect x="29" y="67" width="6" height="6" fill="none" stroke="#FF0000" stroke-width="0.1"/>
<rect x="36" y="67" width="6" height="6" fill="none" stroke="#FF0000" stroke-width="0.1"/>
<rect x="43" y="67" width="6" height="6" fill="none" stroke="#FF0000" stroke-width="0.1"/>
<rect x="1" y="74" width="6" height="6" fill="none" stroke="#FF0000" stroke-width="0.1"/>
<rect x="8" y="74" width="6" height="6" fill="none" stroke="#FF0000" stroke-width="0.1"/>
<rect x="15" y="74" width="6" height="6" fill="none" stroke="#FF0000" stroke-width="0.1"/>
<rect x="22" y="74" width="6" height="6" fill="none" stroke="#FF0000" stroke-width="0.1"/>
<rect x="29" y="74" width="6" height="6" fill="none" stroke="#FF0000" stroke-width="0.1"/>
<rect x="36" y="74" width="6" height="6" fill="none" stroke="#FF0000" stroke-width="0.1"/>
<rect x="43" y="74" width="6" height="6" fill="none" stroke="#FF0000" stroke-width="0.1"/>
<rect x="1" y="81" width="6" height="6" fill="none" stroke="#FF0000" stroke-width="0.1"/>
<rect x="8" y="81" width="6" height="6" fill="none" stroke="#FF0000" stroke-width="0.1"/>
<rect x="15" y="81" width="6" height="6" fill="none" stroke="#FF0000" stroke-width="0.1"/>
<rect x="22" y="81" width="6" height="6" fill="none" stroke="#FF0000" stroke-width="0.1"/>
<rect x="29" y="81" width="6" height="6" fill="none" stroke="#FF0000" stroke-width="0.1"/>
<rect x="36" y="81" width="6" height="6" fill="none" stroke="#FF0000" stroke-width="0.1"/>
<rect x="43" y="81" width="6" height="6" fill="none" stroke="#FF0000" stroke-width="0.1"/>
</g>
</svg>
