<svg xmlns:sodipodi="http://sodipodi.sourceforge.net/DTD/sodipodi-0.dtd" xmlns:inkscape="http://www.inkscape.org/namespaces/inkscape" xmlns="http://www.w3.org/2000/svg" width="130mm" height="70mm" viewBox="0 0 130 70">
<sodipodi:namedview id="base" inkscape:document-units="mm" units="mm" showgrid="false"/>
<g id="CUT-red-hairline" inkscape:groupmode="layer" inkscape:label="CUT: red hairline, cuts through">
<rect x="5" y="5" width="120" height="30" fill="none" stroke="#FF0000" stroke-width="0.1"/>
<rect x="12" y="9" width="3.0" height="18" fill="none" stroke="#FF0000" stroke-width="0.1"/>
<rect x="28" y="9" width="3.05" height="18" fill="none" stroke="#FF0000" stroke-width="0.1"/>
<rect x="44" y="9" width="3.1" height="18" fill="none" stroke="#FF0000" stroke-width="0.1"/>
<rect x="60" y="9" width="3.15" height="18" fill="none" stroke="#FF0000" stroke-width="0.1"/>
<rect x="76" y="9" width="3.2" height="18" fill="none" stroke="#FF0000" stroke-width="0.1"/>
<rect x="92" y="9" width="3.25" height="18" fill="none" stroke="#FF0000" stroke-width="0.1"/>
<rect x="108" y="9" width="3.3" height="18" fill="none" stroke="#FF0000" stroke-width="0.1"/>
<rect x="5" y="42" width="24" height="18" fill="none" stroke="#FF0000" stroke-width="0.1"/>
<rect x="35" y="42" width="24" height="18" fill="none" stroke="#FF0000" stroke-width="0.1"/>
<rect x="65" y="42" width="24" height="18" fill="none" stroke="#FF0000" stroke-width="0.1"/>
</g>
<g id="ENGRAVE-black" inkscape:groupmode="layer" inkscape:label="ENGRAVE: black, engraves">
<text x="13.50" y="32" font-size="3" text-anchor="middle" font-family="Arial">3.00</text>
<text x="29.52" y="32" font-size="3" text-anchor="middle" font-family="Arial">3.05</text>
<text x="45.55" y="32" font-size="3" text-anchor="middle" font-family="Arial">3.10</text>
<text x="61.58" y="32" font-size="3" text-anchor="middle" font-family="Arial">3.15</text>
<text x="77.60" y="32" font-size="3" text-anchor="middle" font-family="Arial">3.20</text>
<text x="93.62" y="32" font-size="3" text-anchor="middle" font-family="Arial">3.25</text>
<text x="109.65" y="32" font-size="3" text-anchor="middle" font-family="Arial">3.30</text>
</g>
</svg>
